<?xml version="1.0" encoding="UTF-8"?>
<svg id="Layer_2" data-name="Layer 2" xmlns="http://www.w3.org/2000/svg" viewBox="0 0 84.7149 16.5371">
  <defs>
    <style>
      .cls-1 {
        fill: none;
        stroke: #231f20;
        stroke-miterlimit: 10;
      }

      .cls-2 {
        fill: #231f20;
        stroke-width: 0px;
      }
    </style>
  </defs>
  <g id="Layer_1-2" data-name="Layer 1">
    <g>
      <path class="cls-2" d="m9.4012,5.3353h1.4512l1.8105,4.7856,1.7988-4.7856h1.1758l-2.5303,6.2847h-1.1758l-2.5303-6.2847Z"/>
      <path class="cls-2" d="m17.0555,2.6009c.4561,0,.8164.3599.8164.8154,0,.4561-.3604.8159-.8164.8159-.4551,0-.8154-.3599-.8154-.8159,0-.4556.3604-.8154.8154-.8154Zm-.6836,2.7344h1.3555v6.2847h-1.3555v-6.2847Z"/>
      <path class="cls-2" d="m18.7732,8.4539c0-1.9189,1.3906-3.2627,3.2979-3.2627,1.9912,0,3.1426,1.5352,3.0342,3.3706h-5.001c.084,1.3188,1.0078,2.1226,2.207,2.1226.9473,0,1.7148-.4678,2.2305-1.1392l.5762.3477c-.3125.7676-1.3672,1.8711-3.0107,1.8711-1.8945,0-3.334-1.3433-3.334-3.3101Zm5.0127-.6597c-.084-.9956-.6475-1.7515-1.7148-1.7515-.9355,0-1.7148.624-1.9189,1.7515h3.6338Z"/>
      <path class="cls-2" d="m29.8943,7.1585l-1.3555,4.4614h-1.0674l-2.123-6.2847h1.4033l1.415,4.5454,1.3799-4.5454h.8994l1.3545,4.5815,1.416-4.5815h1.1748l-2.123,6.2847h-1.0312l-1.3428-4.4614Z"/>
      <path class="cls-2" d="m37.1687,5.3353h1.2842v1.0195c.5029-.7314,1.3066-1.1636,2.3145-1.1636,1.7988,0,3.1543,1.3555,3.1543,3.2866s-1.3555,3.2861-3.1543,3.2861c-.96,0-1.7393-.396-2.2432-1.0557v3.4062h-1.3555V5.3353Zm3.3701,5.397c1.1514,0,2.0029-.8755,2.0029-2.2544s-.8516-2.2549-2.0029-2.2549c-1.1631,0-2.0146.8755-2.0146,2.2549s.8516,2.2544,2.0146,2.2544Z"/>
      <path class="cls-2" d="m44.9451,5.3353h1.2598v1.5835c.4316-1.1636,1.4629-1.9072,2.6504-1.5234l-.1797,1.1152c-1.3438-.1797-2.375.6597-2.375,2.0391v3.0703h-1.3555v-6.2847Z"/>
      <path class="cls-2" d="m48.8338,8.4779c0-1.9312,1.415-3.2866,3.418-3.2866,1.9785,0,3.4062,1.3555,3.4062,3.2866s-1.4277,3.2861-3.4062,3.2861c-2.0029,0-3.418-1.3555-3.418-3.2861Zm3.418,2.2788c1.1992,0,2.0391-.9478,2.0391-2.2788s-.8398-2.2788-2.0391-2.2788-2.0391.9473-2.0391,2.2788.8398,2.2788,2.0391,2.2788Z"/>
      <path class="cls-2" d="m56.6795,11.8719v-6.5366h1.3555v6.2847c0,1.6309-.8154,2.4346-2.5186,2.4946v-.7554c.7314-.1084,1.1631-.54,1.1631-1.4873Zm.6836-9.271c.4561,0,.8164.3599.8164.8154,0,.4561-.3604.8159-.8164.8159-.4551,0-.8154-.3599-.8154-.8159,0-.4556.3604-.8154.8154-.8154Z"/>
      <path class="cls-2" d="m59.0809,8.4539c0-1.9189,1.3906-3.2627,3.2979-3.2627,1.9912,0,3.1426,1.5352,3.0342,3.3706h-5.001c.084,1.3188,1.0078,2.1226,2.207,2.1226.9473,0,1.7148-.4678,2.2305-1.1392l.5762.3477c-.3125.7676-1.3672,1.8711-3.0107,1.8711-1.8945,0-3.334-1.3433-3.334-3.3101Zm5.0127-.6597c-.084-.9956-.6475-1.7515-1.7148-1.7515-.9355,0-1.7148.624-1.9189,1.7515h3.6338Z"/>
      <path class="cls-2" d="m66.1248,8.4779c0-1.9312,1.4268-3.2866,3.3457-3.2866,1.4268,0,2.6143.7437,3.0342,2.0869l-1.0908.3359c-.3359-.8994-1.0557-1.3911-1.9072-1.3911-1.1758,0-2.0273.8755-2.0273,2.147s.8398,2.2666,2.1953,2.2666c.9111,0,1.7988-.48,2.3027-1.1992l.5752.3838c-.3359.8633-1.4746,1.9429-3.1416,1.9429-1.8711,0-3.2861-1.3672-3.2861-3.2861Z"/>
      <path class="cls-2" d="m73.6717,9.785v-3.4541h-1.0078v-.6597l.3604-.084c.5039-.1558.8516-.4917,1.0312-1.2231l.1084-.6357h.8633v1.6069h2.0264v.9956h-2.0264v3.394c0,.6958.4072,1.0913,1.0312,1.0913.3477,0,.7314-.0957.9951-.1919l.1201.7559c-.3721.2036-.9951.3838-1.6309.3838-1.1631,0-1.8711-.7798-1.8711-1.979Z"/>
    </g>
    <rect class="cls-1" x=".5" y=".5" width="83.7149" height="15.5371"/>
  </g>
</svg>