<?xml version="1.0" encoding="UTF-8"?>
<svg id="Layer_2" data-name="Layer 2" xmlns="http://www.w3.org/2000/svg" xmlns:xlink="http://www.w3.org/1999/xlink" viewBox="0 0 136.0228 114.79">
  <defs>
    <style>
      .cls-1 {
        clip-path: url(#clippath);
      }

      .cls-2 {
        fill: none;
      }

      .cls-2, .cls-3, .cls-4 {
        stroke-width: 0px;
      }

      .cls-5 {
        clip-path: url(#clippath-1);
      }

      .cls-6 {
        clip-path: url(#clippath-2);
      }

      .cls-3 {
        fill: #314193;
      }

      .cls-4 {
        fill: #0c6fb5;
      }
    </style>
    <clipPath id="clippath">
      <rect class="cls-2" width="136.0228" height="114.79"/>
    </clipPath>
    <clipPath id="clippath-1">
      <rect class="cls-2" x="-78.3509" y="-8.4022" width="253.2061" height="144"/>
    </clipPath>
    <clipPath id="clippath-2">
      <rect class="cls-2" x="-151.3405" y="-255.0879" width="423.4063" height="443.2595"/>
    </clipPath>
  </defs>
  <g id="Layer_1-2" data-name="Layer 1">
    <g class="cls-1">
      <g class="cls-5">
        <rect class="cls-2" x="-43.0492" y="-41.1359" width="136.4904" height="248.3419" transform="translate(-51.3349 42.1367) rotate(-45)"/>
        <g id="Group_9" data-name="Group 9">
          <path id="Path_11" data-name="Path 11" class="cls-4" d="m-43.3452,73.4995c2.3821-14.4969,12.0485-27.7912,24.2833-36.0179l1.5062-1.013c1.9436-1.5326,4.7329-1.2177,6.7629-2.5975,2.0928-1.3006,3.4563-4.0541,5.9592-4.6262,2.9366-.856,5.957-1.3932,9.0087-1.6021,7.8546-.5324,15.4591.7623,23.174.9724,2.4331-.0489,4.7886-.872,7.1793-1.2464,2.4508-.4404,4.8436-.0795,7.1206.6655,3.963,1.344,7.3554,4.1106,11.4041,5.188,1.2141.2653,2.7042-.4106,3.9314-.4435,1.8587-.0041,3.4759.9525,5.0817,1.7603,2.0958,1.1548,4.0016,2.6463,6.0209,3.916,5.1397,2.9753,10.0292,6.3632,14.6204,10.1302,19.5758,15.6328,30.43,43.1163,20.6713,67.0632l-.5658-.1644c.7855-4.4765,1.0926-9.0238.9164-13.5653-.1719-3.8981-.7102-7.7714-1.6078-11.5687-4.3284-17.4273-16.1262-33.5938-30.9311-43.7497-2.7718-1.8337-5.648-3.6851-8.8443-4.6971-.9536-.3573-2.2401-.7365-3.1725-1.0727-2.0333-.9072-4.2114-1.2862-5.6363-3.8704-2.3731-3.3188-9.5725-2.1086-13.2131-2.4926-2.2438-.1262-4.4454-.6632-6.4954-1.5843-2.0671-.9714-4.2568-2.2077-6.565-2.4455-6.8101-.5057-13.6534,1.6053-19.8452,4.1205l-6.1252,2.4878c-1.5249.5606-2.9547,1.4127-4.5781,1.6443-1.688.124-3.6958-.4526-5.2921.0638-2.2034.5823-3.4257,2.8704-5.5066,3.7168l-1.4566.7568c-12.3825,6.5672-22.3952,17.2329-27.805,30.2723"/>
          <path id="Path_13" data-name="Path 13" class="cls-4" d="m-1.3857,38.5757C7.0754,25.742,21.5768,17.1473,36.7639,15.1827c3.3087-.085,6.5444-1.1285,9.8653-1.1515,2.2119.0289,4.4188.1752,6.6146.4224,7.63.9383,15.0336,3.2232,22.1719,6.0184,4.1364,1.4555,8.3542,2.8261,12.0481,5.2504,2.6917,1.6707,5.4379,3.9282,7.9557,5.838.8751.6656,1.7097,1.3668,2.6892,1.8885,1.975,1.0322,3.5939,2.5472,5.1638,4.0943,18.9584,18.6185,30.2057,45.9584,20.1877,71.9179-1.5992,4.0796-3.7272,7.9316-6.3295,11.4571,4.321-7.2073,7.7974-15.6997,8.5012-24.3186,2.0784-21.0028-7.0712-42.4214-22.2676-56.7992-1.1998-1.0394-2.413-2.2253-3.6023-3.2548-.8335-.6978-1.5187-1.5546-2.2595-2.3487-1.0891-1.2366-2.4422-2.1527-3.7957-3.0634-3.0794-2.0688-6.6418-3.8267-9.8588-5.6398-2.8323-1.5535-5.588-3.3919-8.5909-4.6183-6.0343-2.4335-12.4902-3.7116-18.9528-4.2816-4.2944-.4324-8.5893-.195-12.8871-.4141-3.7932-.4411-7.4901.7154-11.1891,1.3875C18.9977,20.3009,6.7063,27.5883-1.3856,38.5762"/>
        </g>
        <g id="Group_9-2" data-name="Group 9">
          <path id="Path_11-2" data-name="Path 11" class="cls-3" d="m-117.3722-26.3084c23.8487-19.8142,57.6457-27.6361,88.5277-23.8273l3.8022.4685c5.218.2452,9.2288,4.6052,14.3732,5.2136,5.135.8215,11.117-1.6819,15.898.868,5.8652,2.6972,11.4228,6.0186,16.5765,9.9065C35.0624-23.6636,45.3938-11.0814,57.4012-.0758c3.9463,3.2874,8.8395,5.2334,13.1683,7.9433,4.5159,2.6879,7.831,6.5728,10.4302,10.9097,4.4584,7.6239,6.0393,16.7263,11.003,24.0437,1.5684,2.1023,4.8786,3.0858,6.8804,4.7307,2.9685,2.5644,4.2234,6.326,5.6657,9.8348,1.7437,4.7396,2.7185,9.7532,4.1814,14.5702,4.0777,11.8518,7.186,24.0153,9.2942,36.3705,9.5824,51.9961-11.1292,110.8197-59.8076,135.4949l-.6745-1.0446c7.4438-6.0494,14.2231-12.8732,20.2236-20.3564,5.1176-6.4517,9.6169-13.3705,13.4384-20.6651,17.2049-33.7671,20.7594-75.8558,11.2065-112.5225-1.8821-6.757-3.9063-13.6864-7.6016-19.7206-1.026-1.8886-2.5522-4.2724-3.5735-6.0981-1.9864-4.2584-4.9343-7.8754-3.6314-13.9656.8074-8.5727-12.3426-16.6015-17.615-22.2493-3.4022-3.3048-6.1689-7.206-8.1627-11.5096-1.9515-4.4076-3.732-9.4071-7.0825-12.9786C44.5879-7.5139,30.7592-13.6142,17.4103-18.169l-13.205-4.5065c-3.2062-1.2156-6.6639-1.8349-9.5721-3.7111-2.8623-2.1371-5.2654-5.8333-8.5243-7.2181-4.3178-2.1193-9.4309-.1626-13.9188-1.6916l-3.3687-.8084c-28.8219-6.6584-59.5352-3.5056-86.1944,9.7972"/>
        </g>
        <g id="Group_18" data-name="Group 18">
          <g class="cls-6">
            <g id="Group_17" data-name="Group 17">
              <path id="Path_408" data-name="Path 408" class="cls-3" d="m14.3965,60.2774c-.0112-.0963.0578-.1835.1541-.1946.0963-.0112.1835.0578.1946.1541.0112.0963-.0578.1835-.1541.1946-.0068.0008-.0136.0012-.0204.0012-.0909.0049-.1687-.0645-.1742-.1553"/>
              <path id="Path_409" data-name="Path 409" class="cls-3" d="m24.6515,55.4962c-.0112-.0963.0578-.1835.1541-.1946.0963-.0112.1835.0578.1946.1541.0112.0963-.0578.1835-.1541.1946-.0068.0008-.0136.0012-.0204.0012-.0909.0049-.1687-.0645-.1742-.1553"/>
              <path id="Path_411" data-name="Path 411" class="cls-3" d="m4.4674,31.294c0-.0851.1031-.1553.23-.1553s.2318.0702.2318.1553-.104.1553-.2318.1553-.23-.0702-.23-.1553"/>
              <path id="Path_414" data-name="Path 414" class="cls-3" d="m19.2235,42.9162c0-.0851.117-.1553.2611-.1553s.2611.0702.2611.1553-.117.1553-.2611.1553-.2611-.0702-.2611-.1553"/>
              <path id="Path_416" data-name="Path 416" class="cls-3" d="m39.8159,51.6884c-.0112-.0963.0578-.1835.1541-.1946.0963-.0112.1835.0578.1946.1541.0112.0963-.0578.1835-.1541.1946-.0068.0008-.0136.0012-.0204.0012-.0909.0049-.1687-.0645-.1742-.1553"/>
              <path id="Path_417" data-name="Path 417" class="cls-3" d="m50.0718,46.9064c-.0112-.0963.0578-.1835.1541-.1946.0963-.0112.1835.0578.1946.1541.0112.0963-.0578.1835-.1541.1946-.0068.0008-.0136.0012-.0204.0012-.0909.0049-.1687-.0645-.1742-.1553"/>
              <path id="Path_418" data-name="Path 418" class="cls-3" d="m10.5674,23.9758c0-.0851.117-.1553.2611-.1553s.2611.0702.2611.1553-.117.1553-.2611.1553-.2611-.0693-.2611-.1553"/>
              <path id="Path_419" data-name="Path 419" class="cls-3" d="m29.8864,22.7019c0-.0842.104-.1544.2309-.1544s.2318.0702.2318.1544-.104.1553-.2318.1553-.2309-.0702-.2309-.1553"/>
              <path id="Path_420" data-name="Path 420" class="cls-3" d="m10.9145,51.8419c-.0112-.0963.0578-.1835.1541-.1946.0963-.0112.1835.0578.1946.1541.0112.0963-.0578.1835-.1541.1946-.0068.0008-.0136.0012-.0204.0012-.0909.0049-.1687-.0645-.1742-.1553"/>
              <path id="Path_421" data-name="Path 421" class="cls-3" d="m.6595,28.196c-.0112-.0963.0578-.1835.1541-.1946.0963-.0112.1835.0578.1946.1541.0112.0963-.0578.1835-.1541.1946-.0068.0008-.0136.0012-.0204.0012-.0909.0049-.1687-.0645-.1742-.1553"/>
              <path id="Path_422" data-name="Path 422" class="cls-3" d="m44.6439,34.3263c0-.0851.117-.1553.2611-.1553s.2611.0702.2611.1553-.117.1553-.2611.1553-.2611-.0702-.2611-.1553"/>
              <path id="Path_424" data-name="Path 424" class="cls-3" d="m25.0557,32.4113c-.0112-.0963.0578-.1835.1541-.1946.0963-.0112.1835.0578.1946.1541.0112.0963-.0578.1835-.1541.1946-.0068.0008-.0136.0012-.0204.0012-.0909.0049-.1687-.0645-.1742-.1553"/>
              <path id="Path_425" data-name="Path 425" class="cls-3" d="m35.3117,27.6302c-.0112-.0963.0578-.1835.1541-.1946.0963-.0112.1835.0578.1946.1541.0112.0963-.0578.1835-.1541.1946-.0068.0008-.0136.0012-.0204.0012-.0909.0049-.1687-.0645-.1742-.1553"/>
              <path id="Path_427" data-name="Path 427" class="cls-3" d="m15.1262,3.4266c0-.0851.104-.1553.2309-.1553s.2318.0702.2318.1553-.104.1553-.2318.1553-.2309-.0702-.2309-.1553"/>
              <path id="Path_430" data-name="Path 430" class="cls-3" d="m29.8837,15.0506c0-.0851.117-.1553.2611-.1553s.2611.0702.2611.1553-.117.1553-.2611.1553-.2611-.0702-.2611-.1553"/>
              <path id="Path_432" data-name="Path 432" class="cls-3" d="m20.3313,102.1608c-.0112-.0963.0578-.1835.1541-.1946.0963-.0112.1835.0578.1946.1541.0112.0963-.0578.1835-.1541.1946-.0068.0008-.0136.0012-.0204.0012-.0909.0049-.1687-.0645-.1742-.1553"/>
              <path id="Path_433" data-name="Path 433" class="cls-3" d="m30.5873,97.3797c-.0112-.0963.0578-.1835.1541-.1946.0963-.0112.1835.0578.1946.1541.0112.0963-.0578.1835-.1541.1946-.0068.0008-.0136.0012-.0204.0012-.0909.0049-.1687-.0645-.1742-.1553"/>
              <path id="Path_435" data-name="Path 435" class="cls-3" d="m10.4018,73.1753c0-.0851.104-.1553.2309-.1553s.2318.0702.2318.1553-.104.1553-.2318.1553-.2309-.0702-.2309-.1553"/>
              <path id="Path_438" data-name="Path 438" class="cls-3" d="m25.1593,84.7997c0-.0851.117-.1553.2611-.1553s.2611.0702.2611.1553-.117.1553-.2611.1553-.2611-.0702-.2611-.1553"/>
              <path id="Path_443" data-name="Path 443" class="cls-3" d="m.1459,100.2607c0-.0851.104-.1553.2309-.1553s.2318.0702.2318.1553-.104.1553-.2318.1553-.2309-.0702-.2309-.1553"/>
              <path id="Path_446" data-name="Path 446" class="cls-3" d="m14.9033,111.8856c0-.0851.117-.1553.2611-.1553s.2611.0702.2611.1553-.117.1553-.2611.1553-.2611-.0702-.2611-.1553"/>
              <path id="Path_448" data-name="Path 448" class="cls-3" d="m7.6459,83.3704c-.0112-.0963.0578-.1835.1541-.1946.0963-.0112.1835.0578.1946.1541.0112.0963-.0578.1835-.1541.1946-.0068.0008-.0136.0012-.0204.0012-.091.0051-.1689-.0644-.1742-.1553"/>
              <path id="Path_449" data-name="Path 449" class="cls-3" d="m17.8987,78.5897c-.0112-.0963.0578-.1835.1541-.1946.0963-.0112.1835.0578.1946.1541.0112.0963-.0578.1835-.1541.1946-.0068.0008-.0136.0012-.0204.0012-.0909.0049-.1687-.0645-.1742-.1553"/>
              <path id="Path_454" data-name="Path 454" class="cls-3" d="m12.4711,66.0101c0-.0851.117-.1553.2611-.1553s.2611.0702.2611.1553-.117.1553-.2611.1553-.2611-.0702-.2611-.1553"/>
              <path id="Path_456" data-name="Path 456" class="cls-3" d="m34.1129,76.2003c-.0112-.0963.0578-.1835.1541-.1946.0963-.0112.1835.0578.1946.1541.0112.0963-.0578.1835-.1541.1946-.0068.0008-.0136.0012-.0204.0012-.0909.0049-.1687-.0645-.1742-.1553"/>
              <path id="Path_457" data-name="Path 457" class="cls-3" d="m44.3679,71.4192c-.0112-.0963.0578-.1835.1541-.1946.0963-.0112.1835.0578.1946.1541.0112.0963-.0578.1835-.1541.1946-.0068.0008-.0136.0012-.0204.0012-.0909.0049-.1687-.0645-.1742-.1553"/>
              <path id="Path_458" data-name="Path 458" class="cls-3" d="m4.8644,48.49c0-.0851.117-.1553.2611-.1553s.2611.0702.2611.1553-.117.1553-.2611.1553-.2611-.0702-.2611-.1553"/>
              <path id="Path_459" data-name="Path 459" class="cls-3" d="m24.1838,47.2161c0-.0851.1031-.1553.23-.1553s.2327.0702.2327.1553-.1049.1553-.2327.1553-.23-.0702-.23-.1553"/>
              <path id="Path_460" data-name="Path 460" class="cls-3" d="m5.2115,76.3561c-.0112-.0963.0578-.1835.1541-.1946.0963-.0112.1835.0578.1946.1541.0112.0963-.0578.1835-.1541.1946-.0068.0008-.0136.0012-.0204.0012-.0909.0049-.1687-.0645-.1742-.1553"/>
              <path id="Path_462" data-name="Path 462" class="cls-3" d="m38.9404,58.8405c0-.0851.117-.1553.2611-.1553s.2611.0702.2611.1553-.117.1553-.2611.1553-.2611-.0702-.2611-.1553"/>
            </g>
          </g>
        </g>
        <g id="Group_9-3" data-name="Group 9">
          <path id="Path_11-3" data-name="Path 11" class="cls-4" d="m21.3905-97.9305c26.2408,11.9466,46.4681,37.0757,55.7783,64.4716l1.1466,3.3728c1.9066,4.4677-.1203,9.5903,1.4525,14.1433,1.3906,4.6315,5.9075,8.6264,5.7078,13.6611.1157,6.002-.4156,11.9991-1.5847,17.8873-3.0194,15.1524-9.3717,28.8942-13.7258,43.4012-1.155,4.6343-.8038,9.5186-1.3204,14.2394-.4225,4.8686-2.3333,9.2163-4.9121,13.1477-4.5782,6.8182-11.5589,11.8258-15.6761,18.943-1.1253,2.1639-.6089,5.3333-1.1758,7.675-.9454,3.5231-3.5868,6.0962-5.9406,8.7238-3.2623,3.3781-7.0652,6.2234-10.5058,9.3977-8.272,8.2107-17.1972,15.7359-26.6876,22.5015-39.6528,29.067-97.2825,35.5351-137.6424,4.7685l.6016-.9875c8.0773,3.7835,16.534,6.6973,25.2276,8.6923,7.4726,1.6733,15.0861,2.6398,22.7398,2.8868,35.2332.7372,71.9085-13.3217,98.7394-36.1596,4.8952-4.3105,9.8773-8.8097,13.4334-14.3457,1.1659-1.6233,2.5439-3.8659,3.659-5.4599,2.7612-3.3865,4.5962-7.3184,10.2222-8.6925,7.5039-2.7937,8.9033-17.0524,11.4977-23.7523,1.3898-4.1859,3.5361-8.0811,6.3321-11.4921,2.9002-3.4177,6.3651-6.9318,7.9991-11.1824,4.4502-12.6414,3.9604-26.6877,2.3709-39.7069l-1.5717-12.8791c-.2799-3.1762-1.1609-6.3217-.7672-9.5158.6307-3.2613,2.7526-6.7691,2.5929-10.0579.0267-4.4726-3.6809-7.9614-4.2172-12.3375l-.6867-3.1475c-6.0908-26.8246-21.161-51.2617-43.088-68.1966"/>
        </g>
      </g>
    </g>
  </g>
</svg>