<?xml version="1.0" encoding="UTF-8"?>
<svg id="Layer_2" data-name="Layer 2" xmlns="http://www.w3.org/2000/svg" viewBox="0 0 313.4802 384.9432">
  <defs>
    <style>
      .cls-1 {
        fill: #f2f2f3;
        stroke-width: 0px;
      }
    </style>
  </defs>
  <g id="Layer_1-2" data-name="Layer 1">
    <path class="cls-1" d="m101.2225,342.1489c76.4365,9.6415,167.7795-102.7548,167.7795-102.7548,0,0-103.7138,125.0325-165.8327,66.3645-58.7111-55.4493,86.4682-187.1122,57.0993-152.2188-.2937.3488-.585.6988-.8734,1.0492-20.0102,24.309-45.2561,105.1017-23.9083,120.292,12.8085,9.1138,29.0814,8.6548,41.1133,8.4457,51.5344-.8962,136.88-90.9172,136.88-90.9172-56.5275,84.6841-154.5261,223.7877-258.0629,186.2355C-.1985,358.4735-6.5149,310.6136,4.5383,269.1294,48.2703,104.9938,250.3088,0,250.3088,0c0,0-71.9651,52.8744-123.4417,114.9619-78.2274,94.3523-135.1682,213.372-25.6446,227.187Z"/>
  </g>
  <g id="Layer_2-2" data-name="Layer 2">
    <polygon class="cls-1" points="256.3977 107.644 290.5974 128.2847 254.7674 145.9445 234.1266 180.1442 216.4668 144.3141 182.2672 123.6734 218.0972 106.0136 238.7379 71.8139 256.3977 107.644"/>
  </g>
</svg>