<?xml version="1.0" encoding="UTF-8"?>
<svg id="Layer_2" data-name="Layer 2" xmlns="http://www.w3.org/2000/svg" viewBox="0 0 162.2588 78.2167">
  <defs>
    <style>
      .cls-1 {
        fill: #1eb7c8;
        stroke-width: 0px;
      }
    </style>
  </defs>
  <g id="Layer_1-2" data-name="Layer 1">
    <g>
      <g>
        <path class="cls-1" d="m71.1692,32.3933c7.2367.9128,15.8847-9.7284,15.8847-9.7284,0,0-9.8192,11.8376-15.7004,6.2831-5.5585-5.2497,8.1865-17.7151,5.4059-14.4115-.0278.033-.0554.0662-.0827.0993-1.8945,2.3015-4.2847,9.9506-2.2635,11.3888,1.2127.8629,2.7533.8194,3.8924.7996,4.8791-.0848,12.9593-8.6077,12.9593-8.6077-5.3518,8.0176-14.6299,21.1873-24.4324,17.632-5.2655-1.9098-5.8635-6.441-4.817-10.3685C66.1559,9.9404,85.2841,0,85.2841,0c0,0-6.8134,5.0059-11.687,10.8841-7.4063,8.9329-12.7972,20.2012-2.4279,21.5092Z"/>
        <polygon class="cls-1" points="84.8892 14.4117 88.1271 16.3659 84.7348 18.0379 82.7806 21.2758 81.1087 17.8835 77.8708 15.9293 81.263 14.2574 83.2172 11.0195 84.8892 14.4117"/>
      </g>
      <g>
        <path class="cls-1" d="m8.9102,71.2538c-1.7383,0-3.2783-.3906-4.6201-1.1719-1.3418-.7803-2.3926-1.8643-3.1514-3.25s-1.1387-2.9697-1.1387-4.752c0-1.8037.3965-3.3994,1.1885-4.7852s1.8809-2.4697,3.2666-3.251c1.3857-.7803,2.959-1.1709,4.7188-1.1709,1.7822,0,3.3604.3906,4.7363,1.1709,1.374.7812,2.4521,1.8652,3.2334,3.251s1.1826,2.9814,1.2051,4.7852l-1.4854.792c0,1.6279-.3418,3.0742-1.0234,4.3389-.6816,1.2656-1.6221,2.2559-2.8213,2.9707s-2.5684,1.0723-4.1084,1.0723Zm.3301,6.9629c-1.7383,0-3.2666-.3252-4.5869-.9736-1.3203-.6494-2.4092-1.5342-3.2666-2.6562-.2432-.2637-.3467-.5498-.3135-.8584.0322-.3076.1914-.5605.4785-.7588.2852-.1982.6045-.2637.957-.1982.3516.0664.627.2314.8242.4951.6377.792,1.457,1.4297,2.459,1.9141,1.001.4834,2.1611.7266,3.4814.7266,1.2314,0,2.3428-.2969,3.333-.8916.9902-.5938,1.7764-1.4297,2.3594-2.5078s.874-2.3428.874-3.7949v-5.0156l.957-1.9141,1.5518.2969v6.7314c0,1.7822-.3965,3.3828-1.1885,4.8018s-1.8701,2.541-3.2334,3.3662c-1.3652.8252-2.9268,1.2373-4.6865,1.2373Zm-.0664-9.2725c1.2979,0,2.4473-.292,3.4492-.875,1.001-.583,1.7871-1.3916,2.3594-2.4258.5713-1.0332.8574-2.2217.8574-3.5635s-.2861-2.5352-.8574-3.5811c-.5723-1.0439-1.3584-1.8584-2.3594-2.4414-1.002-.583-2.1514-.875-3.4492-.875s-2.4531.292-3.4648.875-1.8037,1.3975-2.376,2.4414c-.5723,1.0459-.8574,2.2393-.8574,3.5811s.2852,2.5303.8574,3.5635c.5723,1.0342,1.3643,1.8428,2.376,2.4258s2.167.875,3.4648.875Z"/>
        <path class="cls-1" d="m26.5322,71.0888c-.8809,0-1.667-.2422-2.3594-.7256-.6934-.4844-1.2324-1.1553-1.6172-2.0137-.3857-.8574-.5781-1.8477-.5781-2.9697v-18.8096c0-.374.1162-.6768.3467-.9082.2314-.2305.5332-.3467.9082-.3467.373,0,.6758.1162.9072.3467.2305.2314.3467.5342.3467.9082v18.8096c0,.9463.1924,1.7158.5771,2.3096.3848.5947.874.8916,1.4688.8916h.8252c.3291,0,.5938.1152.792.3467.1973.2305.2969.5332.2969.9072s-.1377.6768-.4131.9072c-.2754.2314-.6328.3467-1.0723.3467h-.4287Z"/>
        <path class="cls-1" d="m38.2461,71.2538c-1.6943,0-3.2119-.4014-4.5537-1.2041-1.3428-.8037-2.4043-1.8975-3.1846-3.2842-.7812-1.3857-1.1719-2.9473-1.1719-4.6855,0-1.7598.4014-3.333,1.2051-4.7188.8027-1.3867,1.8975-2.4805,3.2832-3.2842,1.3857-.8027,2.9482-1.2041,4.6855-1.2041,1.7383,0,3.2949.4014,4.6699,1.2041,1.375.8037,2.4639,1.8975,3.2666,3.2842.8037,1.3857,1.2158,2.959,1.2383,4.7188l-1.0234.792c0,1.584-.3682,3.0088-1.1055,4.2734-.7373,1.2656-1.7383,2.2656-3.0029,3.0029-1.2656.7373-2.7012,1.1055-4.3066,1.1055Zm.2637-2.3096c1.2764,0,2.415-.2979,3.416-.8916s1.793-1.4131,2.376-2.458.874-2.2168.874-3.5146c0-1.3203-.291-2.4971-.874-3.5312s-1.375-1.8535-2.376-2.458c-1.001-.6055-2.1396-.9082-3.416-.9082-1.2539,0-2.3867.3027-3.3984.9082-1.0127.6045-1.8154,1.4238-2.4092,2.458s-.8906,2.2109-.8906,3.5312c0,1.2979.2969,2.4697.8906,3.5146s1.3965,1.8643,2.4092,2.458c1.0117.5938,2.1445.8916,3.3984.8916Zm7.8877,2.1445c-.375,0-.6826-.1152-.9238-.3467-.2432-.2305-.3633-.5332-.3633-.9072v-5.6436l.627-2.6064,1.9473.4951v7.7549c0,.374-.1211.6768-.3633.9072-.2422.2314-.5498.3467-.9238.3467Z"/>
        <path class="cls-1" d="m51.5117,71.0888c-.3516,0-.6328-.1094-.8418-.3301-.209-.2197-.3184-.4834-.3291-.792-.0117-.3076.1035-.6045.3457-.8906l6.0723-7.5898,1.4189,1.8809-5.7744,7.3252c-.1982.2646-.4951.3965-.8916.3965Zm13.0684,0c-.2646,0-.4785-.0439-.6436-.1318s-.3359-.2422-.5117-.4619l-5.709-7.2598-.9902-.8584-5.7412-7.293c-.2432-.2861-.3584-.583-.3467-.8916.0107-.3076.1152-.5771.3135-.8076.1973-.2314.4834-.3467.8574-.3467s.6934.1318.957.3955l5.5439,7.0957.8916.7256,6.1377,7.8535c.2861.3525.4072.6826.3633.9902-.0449.3086-.1816.5508-.4131.7266-.2305.1758-.4678.2637-.709.2637Zm-5.3457-8.5801l-1.6172-1.6504,5.709-7.2266c.1533-.2197.3242-.374.5117-.4619.1865-.0879.3789-.1318.5771-.1318.374,0,.6602.1152.8574.3467.1982.2305.292.5059.2812.8242-.0117.3193-.127.6221-.3467.9082l-5.9727,7.3916Z"/>
        <path class="cls-1" d="m71.1807,49.6054c-.4844,0-.9023-.1758-1.2539-.5273-.3525-.3516-.5283-.7812-.5283-1.2871,0-.5498.1816-.9844.5449-1.3037.3633-.3184.7861-.4785,1.2705-.4785.4619,0,.874.1602,1.2373.4785.3633.3193.5449.7539.5449,1.3037,0,.5059-.1768.9355-.5283,1.2871-.3525.3516-.7812.5273-1.2871.5273Zm.0332,21.4834c-.3965,0-.71-.1152-.9404-.3467-.2314-.2305-.3467-.5439-.3467-.9404v-15.4766c0-.3965.1152-.71.3467-.9404.2305-.2314.5439-.3467.9404-.3467.374,0,.6768.1152.9072.3467.2314.2305.3467.5439.3467.9404v15.4766c0,.3965-.1152.71-.3467.9404-.2305.2314-.5332.3467-.9072.3467Z"/>
        <path class="cls-1" d="m86.3271,71.2538c-1.7383,0-3.2842-.4014-4.6367-1.2041-1.3535-.8037-2.4209-1.8975-3.2012-3.2842-.7812-1.3857-1.1719-2.9473-1.1719-4.6855,0-1.7598.374-3.333,1.1221-4.7188.748-1.3867,1.7705-2.4805,3.0693-3.2842,1.2979-.8027,2.7939-1.2041,4.4883-1.2041,1.3408,0,2.5791.2637,3.7119.792,1.1328.5273,2.1289,1.3203,2.9863,2.376.2422.2637.3301.5439.2646.8418-.0664.2969-.2539.5557-.5615.7754-.2422.1758-.5117.2363-.8086.1816s-.5557-.2148-.7754-.4785c-1.2764-1.4521-2.8818-2.1787-4.8174-2.1787-1.2324,0-2.3164.2969-3.251.8916-.9355.5938-1.6611,1.4082-2.1777,2.4414-.5176,1.0342-.7754,2.2227-.7754,3.5645,0,1.3193.2744,2.4971.8252,3.5312.5488,1.0342,1.3193,1.8477,2.3096,2.4414s2.123.8916,3.3994.8916c.8574,0,1.6436-.1162,2.3594-.3467.7139-.2314,1.3467-.5889,1.8975-1.0732.2637-.2188.5381-.3408.8242-.3623s.5498.0654.793.2637c.2637.2422.4121.5176.4453.8252.0322.3086-.0723.5723-.3135.792-1.6064,1.4736-3.6084,2.2109-6.0059,2.2109Z"/>
        <path class="cls-1" d="m101.1436,71.0888c-.8809,0-1.667-.2422-2.3594-.7256-.6934-.4844-1.2324-1.1553-1.6172-2.0137-.3857-.8574-.5781-1.8477-.5781-2.9697v-18.8096c0-.374.1162-.6768.3467-.9082.2314-.2305.5332-.3467.9082-.3467.373,0,.6758.1162.9072.3467.2305.2314.3467.5342.3467.9082v18.8096c0,.9463.1924,1.7158.5771,2.3096.3848.5947.874.8916,1.4688.8916h.8252c.3291,0,.5938.1152.792.3467.1973.2305.2969.5332.2969.9072s-.1377.6768-.4131.9072c-.2754.2314-.6328.3467-1.0723.3467h-.4287Z"/>
        <path class="cls-1" d="m113.0898,71.2538c-1.7822,0-3.3613-.3906-4.7354-1.1719-1.376-.7803-2.4541-1.8643-3.2344-3.25-.7812-1.3857-1.1719-2.9697-1.1719-4.752,0-1.8037.3682-3.3936,1.1055-4.7686s1.7549-2.459,3.0527-3.251,2.7939-1.1875,4.4883-1.1875c1.6719,0,3.1289.3789,4.3721,1.1387,1.2432.7588,2.2061,1.8096,2.8877,3.1514s1.0234,2.8711,1.0234,4.5869c0,.3516-.1104.6328-.3301.8418-.2207.209-.5068.3135-.8584.3135h-14.0254v-2.1123h14.2891l-1.4189,1.0225c.0225-1.2754-.209-2.4189-.6924-3.4316-.4844-1.0117-1.1719-1.8037-2.0625-2.376-.8916-.5713-1.9531-.8584-3.1846-.8584-1.2539,0-2.3545.2979-3.2998.8916-.9463.5938-1.6777,1.4141-2.1953,2.458-.5166,1.0459-.7754,2.2393-.7754,3.5811s.292,2.5303.875,3.5635c.582,1.0342,1.3799,1.8486,2.3926,2.4424,1.0117.5938,2.1777.8906,3.498.8906.792,0,1.5889-.1367,2.3926-.4121.8027-.2754,1.4463-.6211,1.9297-1.04.2422-.1973.5176-.3018.8252-.3135.3076-.0107.5723.0723.792.248.2861.2637.4346.5498.4453.8574.0117.3086-.1152.5732-.3789.792-.7266.6162-1.6504,1.1279-2.7725,1.5352s-2.2002.6104-3.2334.6104Z"/>
        <path class="cls-1" d="m131.7998,71.2538c-1.6943,0-3.2119-.4014-4.5537-1.2041-1.3428-.8037-2.4043-1.8975-3.1846-3.2842-.7812-1.3857-1.1719-2.9473-1.1719-4.6855,0-1.7598.4014-3.333,1.2051-4.7188.8027-1.3867,1.8975-2.4805,3.2832-3.2842,1.3857-.8027,2.9482-1.2041,4.6855-1.2041,1.7383,0,3.2949.4014,4.6699,1.2041,1.375.8037,2.4639,1.8975,3.2666,3.2842.8037,1.3857,1.2158,2.959,1.2383,4.7188l-1.0234.792c0,1.584-.3682,3.0088-1.1055,4.2734-.7373,1.2656-1.7383,2.2656-3.0029,3.0029-1.2656.7373-2.7012,1.1055-4.3066,1.1055Zm.2637-2.3096c1.2764,0,2.415-.2979,3.416-.8916s1.793-1.4131,2.376-2.458.874-2.2168.874-3.5146c0-1.3203-.291-2.4971-.874-3.5312s-1.375-1.8535-2.376-2.458c-1.001-.6055-2.1396-.9082-3.416-.9082-1.2539,0-2.3867.3027-3.3984.9082-1.0127.6045-1.8154,1.4238-2.4092,2.458s-.8906,2.2109-.8906,3.5312c0,1.2979.2969,2.4697.8906,3.5146s1.3965,1.8643,2.4092,2.458c1.0117.5938,2.1445.8916,3.3984.8916Zm7.8877,2.1445c-.375,0-.6826-.1152-.9238-.3467-.2432-.2305-.3633-.5332-.3633-.9072v-5.6436l.627-2.6064,1.9473.4951v7.7549c0,.374-.1211.6768-.3633.9072-.2422.2314-.5498.3467-.9238.3467Z"/>
        <path class="cls-1" d="m146.8145,71.0888c-.3955,0-.709-.1152-.9404-.3467-.2305-.2305-.3467-.5332-.3467-.9072v-15.5098c0-.3965.1162-.71.3467-.9404.2314-.2314.5449-.3467.9404-.3467.374,0,.6768.1152.9072.3467.2314.2305.3467.5439.3467.9404v15.5098c0,.374-.1152.6768-.3467.9072-.2305.2314-.5332.3467-.9072.3467Zm14.1904,0c-.375,0-.6826-.1211-.9238-.3633-.2432-.2412-.3633-.5381-.3633-.8906v-8.5801c0-1.3643-.2588-2.4863-.7754-3.3662-.5176-.8799-1.2217-1.5391-2.1123-1.9795s-1.8975-.6602-3.0195-.6602c-1.0781,0-2.0518.209-2.9209.627s-1.5566.9902-2.0625,1.7158-.7588,1.5508-.7588,2.4746h-1.8145c.0439-1.3857.417-2.623,1.1221-3.7119.7031-1.0889,1.6387-1.9473,2.8047-2.5742s2.4639-.9404,3.8936-.9404c1.5625,0,2.959.3252,4.1914.9736,1.2314.6494,2.2051,1.6006,2.9209,2.8545.7139,1.2539,1.0723,2.7832,1.0723,4.5869v8.5801c0,.3525-.1211.6494-.3633.8906-.2422.2422-.5391.3633-.8906.3633Z"/>
      </g>
    </g>
  </g>
</svg>