<?xml version="1.0" encoding="UTF-8"?>
<svg id="Layer_2" data-name="Layer 2" xmlns="http://www.w3.org/2000/svg" viewBox="0 0 127.8484 28.0805">
  <defs>
    <style>
      .cls-1 {
        fill: #75cbc7;
      }

      .cls-1, .cls-2, .cls-3, .cls-4 {
        stroke-width: 0px;
      }

      .cls-2 {
        fill: #63489d;
      }

      .cls-3 {
        fill: #0c6fb5;
      }

      .cls-4 {
        fill: #eaeae5;
      }
    </style>
  </defs>
  <g id="Layer_1-2" data-name="Layer 1">
    <g>
      <g>
        <path class="cls-3" d="m7.2547,24.9582c5.4898.4105,13.8916-6.1891,13.8916-6.1891,0,0-7.2107,4.6338-11.8567.6726-4.3911-3.7439,4.0469-12.0293,2.0777-9.4326-.0197.026-.0392.052-.0585.078-1.3397,1.8074-1.4037,6.0271.175,7.0336.9471.6039,2.1068.512,2.9646.4534,3.6744-.2511,11.1054-3.3295,11.1054-3.3295-3.7265,6.2486-13.9103,15.7882-21.4354,13.4842C.0763,26.4914-.4052,22.4807.233,19.4802,2.7579,7.6081,16.6518,0,16.6518,0c0,0-4.9437,4.0346-8.3918,8.6522C3.02,15.6695-.6114,24.3699,7.2547,24.9582Z"/>
        <polygon class="cls-3" points="17.3599 10.3167 19.6461 11.5562 17.4017 12.7943 16.201 15.0589 14.9238 12.7935 12.6376 11.554 14.882 10.316 16.0827 8.0514 17.3599 10.3167"/>
      </g>
      <g>
        <path class="cls-4" d="m109.5493,24.9582c5.4898.4105,13.8916-6.1891,13.8916-6.1891,0,0-7.2107,4.6338-11.8567.6726-4.3911-3.7439,4.0469-12.0293,2.0777-9.4326-.0197.026-.0392.052-.0585.078-1.3397,1.8074-1.4037,6.0271.175,7.0336.9471.6039,2.1068.512,2.9646.4534,3.6744-.2511,11.1054-3.3295,11.1054-3.3295-3.7265,6.2486-13.9103,15.7882-21.4354,13.4842-4.0422-1.2376-4.5236-5.2482-3.8855-8.2488C105.0524,7.6081,118.9463,0,118.9463,0c0,0-4.9437,4.0346-8.3918,8.6522-5.24,7.0173-8.8714,15.7177-1.0052,16.3059Z"/>
        <polygon class="cls-4" points="119.6544 10.3167 121.9406 11.5562 119.6962 12.7943 118.4956 15.0589 117.2184 12.7935 114.9321 11.554 117.1765 10.316 118.3772 8.0514 119.6544 10.3167"/>
      </g>
      <g>
        <path class="cls-2" d="m42.6625,24.9582c5.4898.4105,13.8916-6.1891,13.8916-6.1891,0,0-7.2107,4.6338-11.8567.6726-4.3911-3.7439,4.0469-12.0293,2.0777-9.4326-.0197.026-.0392.052-.0585.078-1.3397,1.8074-1.4037,6.0271.175,7.0336.9471.6039,2.1068.512,2.9646.4534,3.6744-.2511,11.1054-3.3295,11.1054-3.3295-3.7265,6.2486-13.9103,15.7882-21.4354,13.4842-4.0422-1.2376-4.5236-5.2482-3.8855-8.2488C38.1656,7.6081,52.0595,0,52.0595,0c0,0-4.9437,4.0346-8.3918,8.6522-5.24,7.0173-8.8714,15.7177-1.0052,16.3059Z"/>
        <polygon class="cls-2" points="52.7676 10.3167 55.0538 11.5562 52.8094 12.7943 51.6088 15.0589 50.3316 12.7935 48.0453 11.554 50.2897 10.316 51.4904 8.0514 52.7676 10.3167"/>
      </g>
      <g>
        <path class="cls-1" d="m79.3433,24.9582c5.4898.4105,13.8916-6.1891,13.8916-6.1891,0,0-7.2107,4.6338-11.8567.6726-4.3911-3.7439,4.0469-12.0293,2.0777-9.4326-.0197.026-.0392.052-.0585.078-1.3397,1.8074-1.4037,6.0271.175,7.0336.9471.6039,2.1068.512,2.9646.4534,3.6744-.2511,11.1054-3.3295,11.1054-3.3295-3.7265,6.2486-13.9103,15.7882-21.4354,13.4842-4.0422-1.2376-4.5236-5.2482-3.8855-8.2488C74.8465,7.6081,88.7404,0,88.7404,0c0,0-4.9437,4.0346-8.3918,8.6522-5.24,7.0173-8.8714,15.7177-1.0052,16.3059Z"/>
        <polygon class="cls-1" points="89.4485 10.3167 91.7347 11.5562 89.4903 12.7943 88.2896 15.0589 87.0124 12.7935 84.7262 11.554 86.9706 10.316 88.1713 8.0514 89.4485 10.3167"/>
      </g>
    </g>
  </g>
</svg>