<?xml version="1.0" encoding="UTF-8"?>
<svg id="Layer_2" data-name="Layer 2" xmlns="http://www.w3.org/2000/svg" viewBox="0 0 930.5821 269.7185">
  <defs>
    <style>
      .cls-1 {
        stroke-width: 0px;
      }
    </style>
  </defs>
  <g id="Layer_2-2" data-name="Layer 2">
    <g>
      <path class="cls-1" d="m51.7747,89.4797c0,3.6254.2653,6.9803.7958,10.0673.5305,3.0896,1.5968,6.2859,3.1989,9.5862,1.5968,3.3055,3.7242,6.871,6.3873,10.7071,2.6631,3.8334,6.122,8.3092,10.3872,13.4222,4.6865,5.7527,8.6291,11.0244,11.828,15.8175,3.1937,4.7931,5.7475,9.4821,7.6669,14.062,1.9193,4.585,3.2457,9.1623,3.9947,13.7421.7438,4.5824,1.1183,9.6408,1.1183,15.1803v39.9467c0,5.5421-.9102,10.5952-2.7151,15.1777-1.8153,4.5798-4.3692,8.5199-7.6721,11.8254-3.3029,3.3003-7.1883,5.9114-11.6615,7.8307-4.4732,1.9167-9.3781,2.8738-14.6992,2.8738-10.6577,0-20.1346-3.7294-28.4464-11.183-4.6865-4.2651-8.3638-7.62-11.0218-10.0673-2.6683-2.4525-4.7437-4.3692-6.2313-5.7527-1.4928-1.3836-2.6683-2.6059-3.5161-3.6748-.853-1.0637-1.9193-2.3432-3.1989-3.836-2.9856-3.8334-5.061-7.399-6.2313-10.7045-1.1703-3.3003-1.7581-6.9751-1.7581-11.0244v-63.2776h30.3606l15.0216,16.9384c-.2133-3.836-.749-7.399-1.5968-10.7071-.853-3.3003-2.2366-6.6552-4.1559-10.0647-1.9193-3.4069-4.4264-7.0817-7.5108-11.027-3.0896-3.9375-7.0843-8.5719-11.984-13.9007C6.715,106.0981,0,89.7995,0,72.5413v-31.6375c0-5.7501,1.0091-11.1284,3.0376-16.1373,2.0233-5.0037,4.7385-9.3183,8.1506-12.9437,3.4069-3.6202,7.4536-6.4965,12.1453-8.6265,4.6813-2.1274,9.7942-3.1963,15.3389-3.1963,3.4017,0,6.7098.5331,9.9035,1.5968,3.1989,1.0689,6.6578,2.931,10.3872,5.5941,3.7242,2.6657,7.7761,6.1246,12.1453,10.3846,4.364,4.2651,9.4249,9.5888,15.1777,15.9787,4.0467,4.4732,6.871,8.8996,8.4679,13.2636,1.602,4.3692,2.3978,9.5368,2.3978,15.4976v41.8661h-28.4412l-16.9358-16.9384v2.2366Zm19.1724-49.5329c0-10.2259-3.0376-18.6418-9.1076-25.2476-6.07-6.6006-13.7941-9.9061-23.167-9.9061-4.6917,0-9.1076.9597-13.2636,2.8764s-7.7241,4.4732-10.7045,7.6695c-2.9856,3.1963-5.3834,6.9803-7.1935,11.3442-1.8101,4.3692-2.7151,9.1076-2.7151,14.2206v31.6375c0,4.6891.3693,9.0036,1.1183,12.9437.7438,3.9453,2.0233,7.8307,3.8334,11.6641,1.8101,3.836,4.2079,7.8307,7.1935,11.984,2.9804,4.1559,6.7098,8.7878,11.183,13.9033,4.2599,4.6865,7.7761,8.9464,10.5484,12.7824,2.7619,3.8334,5.0037,7.5082,6.7098,11.0244,1.7009,3.5161,2.9232,7.0297,3.6722,10.5458.7438,3.5161,1.1183,7.3002,1.1183,11.3442v38.9897c0,4.4732-1.0663,8.0986-3.1937,10.8657-2.1326,2.7697-5.0089,4.1533-8.6291,4.1533-3.6254,0-6.6578-1.4876-9.1076-4.4732-2.4499-2.9804-3.6722-6.7124-3.6722-11.1856v-52.0894H4.7957v58.4819c0,8.7383,3.1937,15.9267,9.5862,21.5702,6.3925,5.6461,14.4859,8.4679,24.2905,8.4679,9.5862,0,17.3623-3.139,23.3283-9.4275,5.9608-6.2807,8.9464-14.4287,8.9464-24.4466v-39.9467c0-5.3236-.3745-10.2754-1.1183-14.8604-.749-4.5798-2.0754-9.053-3.9947-13.4222-1.9193-4.364-4.4732-8.8918-7.6721-13.5809-3.1937-4.6839-7.1363-9.9087-11.8228-15.6588-4.0467-4.8997-7.4016-9.2689-10.0647-13.1023-2.6683-3.836-4.7957-7.5108-6.3925-11.027s-2.7151-6.9205-3.3549-10.2259c-.6398-3.3003-.9571-6.871-.9571-10.7045v-26.5271c0-4.4732,1.1651-8.0934,3.5109-10.8631,2.3458-2.7671,5.3262-4.1559,8.9516-4.1559,3.6202,0,6.5486,1.3888,8.7852,4.1559,2.2366,2.7697,3.3549,6.4991,3.3549,11.183v37.0704h20.7744v-38.0274Z"/>
      <path class="cls-1" d="m207.0833,225.9383c0,14.2752-3.3549,25.1358-10.0647,32.5972-6.715,7.4536-16.5717,11.183-29.5647,11.183-3.8334,0-7.2455-.3173-10.2259-.9571-2.9856-.6398-5.9088-1.7581-8.7852-3.3549-2.8764-1.5994-5.966-3.8906-9.2689-6.871-3.3081-2.9882-7.1883-6.7124-11.6667-11.1856-3.6254-3.836-6.6578-7.4562-9.1076-10.8657-2.4499-3.4069-4.4212-6.871-5.9088-10.3872-1.4928-3.5135-2.5071-7.3496-3.0376-11.5029-.5357-4.1559-.801-8.7904-.801-13.9033V1.9167h30.0433l16.6185,18.5352V1.9167h30.3554l21.4142,23.3283v200.6933Zm-93.6356-25.2476c0,28.5531,11.0738,42.8231,33.2369,42.8231,22.7925,0,34.194-13.3104,34.194-39.9467V6.7098h-20.7744v196.8573c0,12.7824-4.4732,19.175-13.4196,19.175-4.4732,0-7.7241-1.4876-9.7474-4.4732-2.0285-2.9804-3.0376-7.8801-3.0376-14.7018V6.7098h-20.4519v193.9809Z"/>
      <path class="cls-1" d="m326.9235,23.968v243.8337h-38.6672l-13.7421-14.6992v14.6992h-28.124l-23.3283-21.4116V1.9167h41.5436l11.1882,12.7824V1.9167h29.3983l21.7314,22.0513Zm-46.3393-17.2582v187.2711L262.3689,6.7098h-34.5113v234.8873h20.4519V47.9361l18.8551,193.6611h33.5542V6.7098h-20.1346Z"/>
      <path class="cls-1" d="m446.7585,23.968v243.8337h-38.6672l-13.7421-14.6992v14.6992h-28.124l-23.3283-21.4116V1.9167h41.5436l11.1882,12.7824V1.9167h29.3983l21.7314,22.0513Zm-46.3393-17.2582v187.2711L382.2039,6.7098h-34.5113v234.8873h20.4519V47.9361l18.8551,193.6611h33.5542V6.7098h-20.1346Z"/>
      <path class="cls-1" d="m481.2698,142.2088c-1.7113-7.8775-4.6917-23.4869-8.9516-46.8178-4.2651-23.3283-10.1219-54.4872-17.5755-93.4743h30.3606l19.4948,21.4116,3.5109-21.4116h30.683l21.0917,23.3283-26.8444,139.0152v103.5416h-28.4412l-23.3283-21.4116v-104.1814Zm4.7905,99.3883h20.7744v-100.3454l25.8822-134.542h-20.4519l-15.0164,90.7592h-1.602l-14.6992-90.7592h-20.1346l25.2476,134.542v100.3454Z"/>
      <path class="cls-1" d="m614.8521,89.4797c0,3.6254.2653,6.9803.7958,10.0673.5305,3.0896,1.5968,6.2859,3.1989,9.5862,1.5968,3.3055,3.7242,6.871,6.3873,10.7071,2.6631,3.8334,6.122,8.3092,10.3872,13.4222,4.6865,5.7527,8.6291,11.0244,11.828,15.8175,3.1937,4.7931,5.7475,9.4821,7.6669,14.062,1.9193,4.585,3.2457,9.1623,3.9947,13.7421.7438,4.5824,1.1183,9.6408,1.1183,15.1803v39.9467c0,5.5421-.9102,10.5952-2.7151,15.1777-1.8153,4.5798-4.3692,8.5199-7.6721,11.8254-3.3029,3.3003-7.1883,5.9114-11.6615,7.8307-4.4732,1.9167-9.3781,2.8738-14.6992,2.8738-10.6577,0-20.1346-3.7294-28.4464-11.183-4.6865-4.2651-8.3638-7.62-11.0218-10.0673-2.6683-2.4525-4.7437-4.3692-6.2313-5.7527-1.4928-1.3836-2.6683-2.6059-3.5161-3.6748-.853-1.0637-1.9193-2.3432-3.1989-3.836-2.9856-3.8334-5.061-7.399-6.2313-10.7045-1.1703-3.3003-1.7581-6.9751-1.7581-11.0244v-63.2776h30.3606l15.0216,16.9384c-.2133-3.836-.749-7.399-1.5968-10.7071-.853-3.3003-2.2366-6.6552-4.1559-10.0647-1.9193-3.4069-4.4264-7.0817-7.5108-11.027-3.0896-3.9375-7.0843-8.5719-11.984-13.9007-13.4196-15.3389-20.1346-31.6375-20.1346-48.8957v-31.6375c0-5.7501,1.0091-11.1284,3.0376-16.1373,2.0233-5.0037,4.7385-9.3183,8.1506-12.9437,3.4069-3.6202,7.4536-6.4965,12.1453-8.6265,4.6813-2.1274,9.7942-3.1963,15.3389-3.1963,3.4017,0,6.7098.5331,9.9035,1.5968,3.1989,1.0689,6.6578,2.931,10.3872,5.5941,3.7242,2.6657,7.7761,6.1246,12.1453,10.3846,4.364,4.2651,9.4249,9.5888,15.1777,15.9787,4.0467,4.4732,6.871,8.8996,8.4679,13.2636,1.602,4.3692,2.3978,9.5368,2.3978,15.4976v41.8661h-28.4412l-16.9358-16.9384v2.2366Zm19.1724-49.5329c0-10.2259-3.0376-18.6418-9.1076-25.2476-6.07-6.6006-13.7941-9.9061-23.167-9.9061-4.6917,0-9.1076.9597-13.2636,2.8764s-7.7241,4.4732-10.7045,7.6695c-2.9856,3.1963-5.3834,6.9803-7.1935,11.3442-1.8101,4.3692-2.7151,9.1076-2.7151,14.2206v31.6375c0,4.6891.3693,9.0036,1.1183,12.9437.7438,3.9453,2.0233,7.8307,3.8334,11.6641,1.8101,3.836,4.2079,7.8307,7.1935,11.984,2.9804,4.1559,6.7098,8.7878,11.183,13.9033,4.2599,4.6865,7.7761,8.9464,10.5484,12.7824,2.7619,3.8334,5.0037,7.5082,6.7098,11.0244,1.7009,3.5161,2.9232,7.0297,3.6722,10.5458.7438,3.5161,1.1183,7.3002,1.1183,11.3442v38.9897c0,4.4732-1.0663,8.0986-3.1937,10.8657-2.1326,2.7697-5.0089,4.1533-8.6291,4.1533-3.6254,0-6.6578-1.4876-9.1076-4.4732-2.4499-2.9804-3.6722-6.7124-3.6722-11.1856v-52.0894h-20.7744v58.4819c0,8.7383,3.1937,15.9267,9.5862,21.5702,6.3925,5.6461,14.4859,8.4679,24.2905,8.4679,9.5862,0,17.3623-3.139,23.3283-9.4275,5.9608-6.2807,8.9464-14.4287,8.9464-24.4466v-39.9467c0-5.3236-.3745-10.2754-1.1183-14.8604-.749-4.5798-2.0754-9.053-3.9947-13.4222-1.9193-4.364-4.4732-8.8918-7.6721-13.5809-3.1937-4.6839-7.1363-9.9087-11.8228-15.6588-4.0467-4.8997-7.4016-9.2689-10.0647-13.1023-2.6683-3.836-4.7957-7.5108-6.3925-11.027-1.5968-3.5161-2.7151-6.9205-3.3549-10.2259-.6398-3.3003-.9571-6.871-.9571-10.7045v-26.5271c0-4.4732,1.1651-8.0934,3.5109-10.8631,2.3458-2.7671,5.3262-4.1559,8.9516-4.1559,3.6202,0,6.5486,1.3888,8.7852,4.1559,2.2366,2.7697,3.3549,6.4991,3.3549,11.183v37.0704h20.7744v-38.0274Z"/>
      <path class="cls-1" d="m671.4121,1.9167h30.3606l21.409,23.3283v242.5568h-28.4412l-23.3283-21.4116V1.9167Zm4.7957,239.6804h20.7692V6.7098h-20.7692v234.8873Z"/>
      <path class="cls-1" d="m775.2736,1.9167c5.5343,0,10.3872.4291,14.5379,1.2795,4.1559.853,8.1506,2.3458,11.984,4.4732,3.8386,2.1326,7.7189,5.113,11.6667,8.9464,3.9375,3.836,8.4679,8.7383,13.5809,14.7018,3.6202,3.6254,6.1793,7.7241,7.6721,12.3039,1.4876,4.5824,2.2366,9.9607,2.2366,16.1373v167.7763c0,5.7527-.9102,11.0816-2.7203,15.9787-1.8101,4.8997-4.2599,9.1597-7.3496,12.7824-3.0896,3.6202-6.767,6.4419-11.0218,8.4705-4.2651,2.0207-8.9516,3.035-14.0646,3.035h-41.2263l-21.409-21.4116V1.9167h36.1133Zm8.3066,239.6804c8.5199,0,15.1829-3.1963,19.9734-9.5862,4.7957-6.3925,7.1935-15.3415,7.1935-26.8444V41.2237c0-23.0084-11.828-34.5139-35.4735-34.5139h-31.3176v234.8873h39.6243Zm-20.1346-215.7124h11.828c4.8945.6398,8.3586,2.2366,10.3872,4.7931,2.0181,2.5565,3.0324,6.6058,3.0324,12.1453v163.3005c0,6.1819-1.1703,10.4418-3.5161,12.785-2.3458,2.3458-6.5017,3.5135-12.4625,3.5135h-9.2689V25.8848Z"/>
      <path class="cls-1" d="m851.3284,1.9167h57.8447l21.409,23.3283v26.8444h-27.4842v56.8851h6.0752l21.409,23.3283v26.8444h-27.4842v58.4819h6.0752l21.409,23.3283v26.8444h-55.9254l-23.3283-21.4116V1.9167Zm4.7957,239.6804h48.2534v-19.175h-27.4842v-89.4797h27.4842v-19.175h-27.4842V25.8848h27.4842V6.7098h-48.2534v234.8873Z"/>
    </g>
  </g>
</svg>