<?xml version="1.0" encoding="UTF-8"?>
<svg id="Layer_2" data-name="Layer 2" xmlns="http://www.w3.org/2000/svg" viewBox="0 0 911.8495 316.8022">
  <defs>
    <style>
      .cls-1 {
        letter-spacing: .012em;
      }

      .cls-2 {
        stroke: #d36d27;
        stroke-width: 3px;
      }

      .cls-2, .cls-3, .cls-4, .cls-5 {
        fill: none;
        stroke-miterlimit: 10;
      }

      .cls-6 {
        letter-spacing: -.083em;
      }

      .cls-7 {
        letter-spacing: -.003em;
      }

      .cls-8 {
        letter-spacing: .011em;
      }

      .cls-9 {
        letter-spacing: .011em;
      }

      .cls-10 {
        letter-spacing: -.006em;
      }

      .cls-11 {
        letter-spacing: .011em;
      }

      .cls-12 {
        letter-spacing: -.0171em;
      }

      .cls-13, .cls-14, .cls-15, .cls-16, .cls-17, .cls-18, .cls-19, .cls-20 {
        font-family: WorkSansRoman-Bold, 'Work Sans';
        font-variation-settings: 'wght' 700;
        font-weight: 700;
      }

      .cls-13, .cls-17 {
        font-size: 8px;
      }

      .cls-14, .cls-15, .cls-16, .cls-19 {
        font-size: 12px;
      }

      .cls-21 {
        letter-spacing: -.0239em;
      }

      .cls-22 {
        letter-spacing: -.007em;
      }

      .cls-23, .cls-19 {
        letter-spacing: .019em;
      }

      .cls-24 {
        letter-spacing: -.084em;
      }

      .cls-25 {
        letter-spacing: .0031em;
      }

      .cls-26 {
        letter-spacing: .001em;
      }

      .cls-27 {
        letter-spacing: -.001em;
      }

      .cls-3 {
        stroke: #1c1b44;
      }

      .cls-3, .cls-4 {
        stroke-width: 4px;
      }

      .cls-4 {
        stroke: #e2ded9;
      }

      .cls-15, .cls-28 {
        fill: #d36d27;
      }

      .cls-16, .cls-17 {
        fill: #231f20;
      }

      .cls-29 {
        letter-spacing: -.007em;
      }

      .cls-30 {
        letter-spacing: -.007em;
      }

      .cls-5 {
        stroke: #484646;
      }

      .cls-31 {
        letter-spacing: -.011em;
      }

      .cls-32 {
        letter-spacing: .003em;
      }

      .cls-33 {
        letter-spacing: -.0451em;
      }

      .cls-34 {
        letter-spacing: .0071em;
      }

      .cls-35 {
        letter-spacing: .0001em;
      }

      .cls-36 {
        letter-spacing: -.015em;
      }

      .cls-37 {
        letter-spacing: .019em;
      }

      .cls-38 {
        fill: #484646;
      }

      .cls-38, .cls-39, .cls-28, .cls-40, .cls-41 {
        stroke-width: 0px;
      }

      .cls-39, .cls-19 {
        fill: #1c1b44;
      }

      .cls-40 {
        fill: #e2ded9;
      }

      .cls-41 {
        fill: #fff;
      }

      .cls-42 {
        letter-spacing: .039em;
      }

      .cls-43 {
        letter-spacing: .001em;
      }

      .cls-44 {
        letter-spacing: .013em;
      }

      .cls-18 {
        font-size: 10px;
      }

      .cls-45 {
        letter-spacing: .019em;
      }

      .cls-46 {
        letter-spacing: .019em;
      }

      .cls-47 {
        letter-spacing: .019em;
      }

      .cls-48 {
        letter-spacing: .019em;
      }

      .cls-49 {
        letter-spacing: -.026em;
      }

      .cls-50 {
        letter-spacing: -.053em;
      }

      .cls-51 {
        letter-spacing: -.0271em;
      }

      .cls-20 {
        font-size: 11px;
      }
    </style>
  </defs>
  <g id="Layer_1-2" data-name="Layer 1">
    <rect class="cls-41" x="623.5561" y="2.3003" width="252" height="144"/>
    <g>
      <text class="cls-13" transform="translate(803.7828 134.5898)"><tspan class="cls-46" x="0" y="0">ma</tspan><tspan class="cls-44" x="12.4639" y="0">r</tspan><tspan class="cls-46" x="16.0078" y="0">cus</tspan><tspan class="cls-1" x="30.2158" y="0">b</tspan><tspan class="cls-46" x="35.3276" y="0">g</tspan><tspan class="cls-25" x="39.9595" y="0">.</tspan><tspan class="cls-46" x="42.3037" y="0">com</tspan></text>
      <text class="cls-13" transform="translate(774.8328 117.8427)"><tspan class="cls-46" x="0" y="0">ma</tspan><tspan class="cls-44" x="12.4639" y="0">r</tspan><tspan class="cls-46" x="16.0078" y="0">cus</tspan><tspan class="cls-1" x="30.2153" y="0">b</tspan><tspan class="cls-46" x="35.3271" y="0">g@gmai</tspan><tspan class="cls-42" x="67.1353" y="0">l</tspan><tspan class="cls-32" x="70.0635" y="0">.</tspan><tspan class="cls-37" x="72.4072" y="0">com</tspan></text>
      <text class="cls-13" transform="translate(790.1278 92.553)"><tspan x="0" y="0">330 Passaic St</tspan><tspan class="cls-10" x="57.8721" y="0">r</tspan><tspan x="61.2637" y="0">e</tspan><tspan class="cls-10" x="65.8955" y="0">e</tspan><tspan x="70.4795" y="0">t </tspan><tspan x="0" y="9.5996">Passaic, NJ </tspan><tspan class="cls-49" x="47.7676" y="9.5996">07</tspan><tspan class="cls-10" x="57.3682" y="9.5996">0</tspan><tspan x="62.4727" y="9.5996">55.</tspan></text>
      <g>
        <g>
          <polygon class="cls-28" points="843.2358 64.0101 843.2358 60.6812 835.0304 55.8216 826.9559 60.5597 826.9559 64.3698 830.6979 64.3698 830.6979 62.965 835.0304 60.4139 839.2509 62.8195 839.2509 64.0164 843.2358 64.0101"/>
          <polygon class="cls-28" points="849.3256 73.1232 849.3256 67.4054 841.1202 62.5457 833.0457 67.2839 833.0457 71.7411 836.7877 71.7411 836.7877 69.6891 841.1202 67.1381 845.3407 69.5436 845.3407 73.1295 849.3256 73.1232"/>
          <polygon class="cls-28" points="861.8012 73.1169 861.8012 67.2833 853.5958 62.4237 845.5213 67.1619 845.5213 73.1232 849.2633 73.1232 849.2633 69.5671 853.5958 67.0161 857.8163 69.4216 857.8163 73.1232 861.8012 73.1169"/>
          <polygon class="cls-28" points="836.8077 73.12 836.8077 67.8283 828.6023 62.9686 820.5278 67.7068 820.5278 73.5574 824.2698 73.5574 824.2698 70.112 828.6023 67.561 832.8228 69.9665 832.8228 73.1263 836.8077 73.12"/>
          <polygon class="cls-28" points="855.6987 63.662 855.6987 60.3332 847.4934 55.4735 839.4189 60.2117 839.4189 64.0217 843.1608 64.0217 843.1608 62.6169 847.4934 60.0659 851.7138 62.4714 851.7138 63.6684 855.6987 63.662"/>
        </g>
        <polygon class="cls-2" points="820.0067 56.7711 821.6092 55.4735 863.3018 55.4735 863.3018 72.1629 861.6565 73.4951 820.6919 73.4951 820.0067 72.7141 820.0067 56.7711"/>
      </g>
    </g>
    <rect class="cls-41" width="252" height="144"/>
    <g>
      <text class="cls-14" transform="translate(20.1989 62.7372)"><tspan class="cls-30" x="0" y="0">9</tspan><tspan class="cls-48" x="7.3081" y="0">72 5</tspan><tspan class="cls-43" x="33.0962" y="0">6</tspan><tspan class="cls-48" x="40.5005" y="0">1 0</tspan><tspan class="cls-11" x="57.5161" y="0">9</tspan><tspan class="cls-48" x="65.0405" y="0">34</tspan></text>
      <text class="cls-17" transform="translate(19.6146 38.1612)"><tspan x="0" y="0">P</tspan><tspan class="cls-22" x="5.3438" y="0">R</tspan><tspan x="10.7998" y="0">OJ</tspan><tspan class="cls-10" x="21.6396" y="0">E</tspan><tspan x="26.6396" y="0">C</tspan><tspan class="cls-12" x="32.0879" y="0">T</tspan><tspan x="37.1748" y="0" xml:space="preserve"> MAN</tspan><tspan class="cls-21" x="58.0869" y="0">A</tspan><tspan x="63.3115" y="0">GER</tspan></text>
      <text class="cls-16" transform="translate(18.49 24.3469)"><tspan class="cls-23" x="0" y="0">KRIS </tspan><tspan class="cls-34" x="32.7109" y="0">S</tspan><tspan class="cls-23" x="40.5361" y="0">TE</tspan><tspan class="cls-33" x="56.4004" y="0">F</tspan><tspan class="cls-37" x="63.2031" y="0">AN</tspan></text>
    </g>
    <g>
      <text class="cls-13" transform="translate(183.5148 132.289)"><tspan class="cls-46" x="0" y="0">ma</tspan><tspan class="cls-44" x="12.4639" y="0">r</tspan><tspan class="cls-46" x="16.0078" y="0">cus</tspan><tspan class="cls-1" x="30.2158" y="0">b</tspan><tspan class="cls-46" x="35.3276" y="0">g</tspan><tspan class="cls-25" x="39.9595" y="0">.</tspan><tspan class="cls-46" x="42.3037" y="0">com</tspan></text>
      <text class="cls-13" transform="translate(154.5649 115.5419)"><tspan class="cls-46" x="0" y="0">ma</tspan><tspan class="cls-44" x="12.4639" y="0">r</tspan><tspan class="cls-46" x="16.0078" y="0">cus</tspan><tspan class="cls-1" x="30.2153" y="0">b</tspan><tspan class="cls-46" x="35.3271" y="0">g@gmai</tspan><tspan class="cls-42" x="67.1353" y="0">l</tspan><tspan class="cls-32" x="70.0635" y="0">.</tspan><tspan class="cls-37" x="72.4072" y="0">com</tspan></text>
      <text class="cls-13" transform="translate(169.8597 90.2526)"><tspan x="0" y="0">330 Passaic St</tspan><tspan class="cls-10" x="57.8721" y="0">r</tspan><tspan x="61.2637" y="0">e</tspan><tspan class="cls-10" x="65.8955" y="0">e</tspan><tspan x="70.4795" y="0">t </tspan><tspan x="0" y="9.5996">Passaic, NJ </tspan><tspan class="cls-49" x="47.7676" y="9.5996">07</tspan><tspan class="cls-10" x="57.3682" y="9.5996">0</tspan><tspan x="62.4727" y="9.5996">55.</tspan></text>
      <g>
        <g>
          <polygon class="cls-38" points="222.9678 61.7097 222.9678 58.3809 214.7624 53.5212 206.688 58.2594 206.688 62.0694 210.4299 62.0694 210.4299 60.6647 214.7624 58.1136 218.9829 60.5191 218.9829 61.7161 222.9678 61.7097"/>
          <polygon class="cls-38" points="229.0576 70.8228 229.0576 65.105 220.8522 60.2454 212.7777 64.9835 212.7777 69.4408 216.5197 69.4408 216.5197 67.3888 220.8522 64.8377 225.0727 67.2433 225.0727 70.8292 229.0576 70.8228"/>
          <polygon class="cls-38" points="241.5332 70.8165 241.5332 64.983 233.3278 60.1233 225.2533 64.8615 225.2533 70.8228 228.9953 70.8228 228.9953 67.2668 233.3278 64.7157 237.5483 67.1212 237.5483 70.8228 241.5332 70.8165"/>
          <polygon class="cls-38" points="216.5397 70.8197 216.5397 65.5279 208.3343 60.6683 200.2599 65.4064 200.2599 71.2571 204.0018 71.2571 204.0018 67.8117 208.3343 65.2606 212.5548 67.6662 212.5548 70.826 216.5397 70.8197"/>
          <polygon class="cls-38" points="235.4308 61.3617 235.4308 58.0328 227.2254 53.1732 219.1509 57.9113 219.1509 61.7214 222.8929 61.7214 222.8929 60.3166 227.2254 57.7655 231.4458 60.1711 231.4458 61.368 235.4308 61.3617"/>
        </g>
        <polygon class="cls-5" points="199.7387 54.4707 201.3412 53.1732 243.0338 53.1732 243.0338 69.8626 241.3885 71.1948 200.424 71.1948 199.7387 70.4138 199.7387 54.4707"/>
      </g>
    </g>
    <g>
      <rect class="cls-28" x="624.1987" y="172.4371" width="256.5333" height="142.0624"/>
      <g>
        <g>
          <polygon class="cls-40" points="759.1989 222.4636 759.1989 215.881 742.9734 206.2715 727.0068 215.6408 727.0068 223.1748 734.4062 223.1748 734.4062 220.397 742.9734 215.3525 751.3191 220.1093 751.3191 222.4761 759.1989 222.4636"/>
          <polygon class="cls-40" points="771.241 240.4841 771.241 229.1775 755.0155 219.5679 739.0489 228.9373 739.0489 237.7511 746.4483 237.7511 746.4483 233.6935 755.0155 228.649 763.3612 233.4057 763.3612 240.4966 771.241 240.4841"/>
          <polygon class="cls-40" points="795.9105 240.4716 795.9105 228.9362 779.685 219.3266 763.7184 228.696 763.7184 240.4841 771.1178 240.4841 771.1178 233.4522 779.685 228.4077 788.0307 233.1644 788.0307 240.4841 795.9105 240.4716"/>
          <polygon class="cls-40" points="746.4879 240.4778 746.4879 230.0138 730.2624 220.4042 714.2958 229.7735 714.2958 241.3428 721.6951 241.3428 721.6951 234.5297 730.2624 229.4852 738.608 234.242 738.608 240.4903 746.4879 240.4778"/>
          <polygon class="cls-40" points="783.8435 221.7754 783.8435 215.1928 767.618 205.5832 751.6514 214.9526 751.6514 222.4866 759.0507 222.4866 759.0507 219.7088 767.618 214.6643 775.9636 219.421 775.9636 221.7879 783.8435 221.7754"/>
        </g>
        <polygon class="cls-4" points="712.255 202.3063 715.4238 199.4256 797.8676 199.4256 797.8676 236.4775 794.6143 239.4352 713.6101 239.4352 712.255 237.7012 712.255 202.3063"/>
      </g>
      <g>
        <path class="cls-40" d="m727.8081,252.2025v11.9829h-3.6864v-4.158l.055-4.0304h-.055l-2.3246,8.1884h-3.3778l-2.2874-8.1884h-.0727l.055,4.0304v4.158h-3.7041v-11.9829h5.9188l1.3795,5.3194.5266,2.2324h.0372l.5266-2.2324,1.3795-5.3194h5.6297Z"/>
        <path class="cls-40" d="m741.589,264.1854h-4.3212l-.5461-2.2874h-3.2307l-.5639,2.2874h-4.2112l3.885-11.9829h5.0836l3.9045,11.9829Zm-7.4632-4.9205h1.9788l-.9805-4.158-.9983,4.158Z"/>
        <path class="cls-40" d="m748.9972,252.2025c1.5621,0,2.759.3475,3.5942,1.0426.8352.6968,1.2536,1.6207,1.2536,2.7697,0,1.3192-.4078,2.3122-1.2252,2.9771-.8174.6667-2.0072,1.0001-3.5676,1.0001l-.4185.2163h-1.9966v3.9772h-4.1403v-11.9829h6.5004Zm-.727,5.229c.4486,0,.7837-.0816,1.0089-.2465.2234-.1631.3351-.4504.3351-.8617,0-.399-.1117-.6844-.3351-.8529-.2252-.1702-.5603-.2553-1.0089-.2553h-1.6331v2.2164h1.6331Zm2.5055.8883l3.7413,5.8656h-4.5942l-2.7963-5.2467,3.6491-.6188Z"/>
        <path class="cls-40" d="m766.6081,260.5186c-.2181.9309-.5905,1.6809-1.1171,2.2501s-1.165.9788-1.915,1.2252c-.7518.2482-1.587.3724-2.5055.3724-1.2589,0-2.3459-.2411-3.259-.7252-.9149-.4841-1.6171-1.1862-2.1065-2.1065-.4912-.9203-.7359-2.0338-.7359-3.3406s.2447-2.4203.7359-3.3406c.4894-.9203,1.1916-1.6224,2.1065-2.1065.9132-.4841,2.0001-.727,3.259-.727.883,0,1.7058.1241,2.4682.3724s1.4079.6383,1.9345,1.172c.5266.5319.8742,1.2288,1.0444,2.087l-3.6314,1.4167c-.0975-.7873-.2943-1.2944-.5905-1.5249-.2979-.2305-.6685-.3458-1.1171-.3458-.4114,0-.7589.1064-1.0444.3174-.2837.2128-.4965.539-.6348.9805-.1401.4433-.2092,1.0089-.2092,1.6987,0,.6773.0638,1.2412.1915,1.688.1259.4486.3351.7784.6259.9894.2908.2128.6773.3174,1.1614.3174.4362,0,.7926-.1294,1.071-.3901.2784-.2589.4539-.6738.5266-1.243l3.7413.9628Z"/>
        <path class="cls-40" d="m779.1726,252.2025v6.8266c0,1.7909-.4805,3.1296-1.4433,4.0126s-2.4115,1.3245-4.3495,1.3245c-1.9363,0-3.3849-.4415-4.3478-1.3245-.9628-.883-1.4433-2.2218-1.4433-4.0126v-6.8266h4.2485v7.1529c0,.6064.133,1.0621.399,1.3706s.6472.4628,1.1437.4628c.5089,0,.8972-.1543,1.1632-.4628s.399-.7642.399-1.3706v-7.1529h4.2307Z"/>
        <path class="cls-40" d="m786.18,252.0199c1.1508,0,2.1827.1436,3.0959.4273.9149.2837,1.7217.711,2.4239,1.2802l-1.7058,2.7236c-.5692-.4007-1.165-.7199-1.7891-.9628-.6241-.2411-1.2979-.3635-2.0249-.3635-.3138,0-.5656.0248-.7536.0727-.188.0496-.3209.1153-.399.2004s-.117.1809-.117.2908c0,.1454.1117.2536.3351.3263s.5053.1507.844.2358l1.6526.3812c1.2217.2784,2.1455.6898,2.7697,1.2341.6224.5461.9344,1.3015.9344,2.2696,0,.9699-.2358,1.7661-.7075,2.3884-.4734.6241-1.1118,1.0869-1.9168,1.3884-.805.3032-1.7146.4539-2.7324.4539-.7625,0-1.5249-.0692-2.2874-.2075-.7625-.1401-1.4717-.3458-2.1242-.6188-.6543-.2713-1.2164-.6011-1.688-.9894l1.6703-2.7767c.3511.2784.7731.5284,1.2696.7536.4965.2234,1.0107.4025,1.5444.5355.5319.133,1.0284.1986,1.4877.1986.2908,0,.5213-.0231.6915-.0727.1684-.0479.2872-.1117.3529-.1897.0674-.078.1011-.172.1011-.2819,0-.1684-.0709-.2961-.2092-.3812-.1401-.0851-.3901-.1684-.7536-.2536l-1.8157-.4007c-.6419-.1436-1.2536-.3387-1.8334-.5798-.5816-.2429-1.0532-.5958-1.4167-1.0621s-.5444-1.0994-.5444-1.8973c0-.8227.2199-1.5444.6614-2.1615.4433-.6171,1.0834-1.0976,1.9256-1.4433.8405-.3458,1.8618-.5178,3.0587-.5178Z"/>
        <path class="cls-40" d="m712.4101,278.7111v-11.9829h6.8638c1.5125.0106,2.6384.2802,3.3761.8068.7394.5266,1.1082,1.3228,1.1082,2.3884,0,.7146-.2181,1.3192-.6543,1.8157-.4344.4965-1.1189.8103-2.0515.9433v.0195c1.0408.1082,1.8033.4167,2.2874.9256s.727,1.149.727,1.9239c0,1.0532-.3546,1.8441-1.0621,2.3707-.7075.5266-1.7944.789-3.259.789h-7.3355Zm4.0499-7.3355h1.8866c.727,0,1.0905-.2908,1.0905-.8706,0-.5816-.3635-.8724-1.0905-.8724h-1.8866v1.743Zm0,4.5765h2.1597c.3759,0,.6561-.0762.844-.227.188-.1525.2819-.3724.2819-.6632,0-.2784-.094-.4912-.2819-.6366s-.4681-.2181-.844-.2181h-2.1597v1.7448Z"/>
        <path class="cls-40" d="m736.7217,266.7281v6.8266c0,1.7909-.4805,3.1296-1.4433,4.0126-.9628.883-2.4115,1.3245-4.3495,1.3245-1.9363,0-3.3849-.4415-4.3478-1.3245-.9628-.883-1.4433-2.2218-1.4433-4.0126v-6.8266h4.2485v7.1529c0,.6064.133,1.0621.399,1.3706s.6472.4628,1.1437.4628c.5089,0,.8972-.1543,1.1632-.4628s.399-.7642.399-1.3706v-7.1529h4.2307Z"/>
        <path class="cls-40" d="m742.7149,266.7281v11.9829h-4.2307v-11.9829h4.2307Z"/>
        <path class="cls-40" d="m748.9422,275.6063h5.4294v3.1048h-9.6601v-11.9829h4.2307v8.8781Z"/>
        <path class="cls-40" d="m761.7621,266.7281c1.876,0,3.2927.5195,4.2485,1.5604.9557,1.0408,1.4345,2.5179,1.4345,4.4311,0,1.9008-.4787,3.3743-1.4345,4.4205-.9557,1.0479-2.3725,1.571-4.2485,1.571h-5.8833v-11.9829h5.8833Zm-.5993,8.9686c.7873,0,1.3104-.2394,1.571-.7164.2589-.4787.3901-1.2323.3901-2.2608s-.1312-1.782-.3901-2.2608c-.2607-.4787-.7837-.7181-1.571-.7181h-1.0532v5.956h1.0532Z"/>
        <path class="cls-40" d="m773.291,266.7281v11.9829h-4.2307v-11.9829h4.2307Z"/>
        <path class="cls-40" d="m787.017,266.7281v11.9829h-4.5747l-2.8689-5.4471-.6543-1.4699h-.0355l.0709,2.4682v4.4488h-3.6669v-11.9829h4.5747l2.8689,5.4648.6543,1.4522h.0372l-.0727-2.47v-4.447h3.6669Z"/>
        <path class="cls-40" d="m794.0634,278.8919c-1.0302,0-1.9558-.227-2.7785-.6809-.8227-.4539-1.4699-1.1366-1.9434-2.0515-.4717-.9132-.7075-2.048-.7075-3.4044,0-1.3068.2447-2.4239.7359-3.3495.4894-.9256,1.2004-1.6348,2.1331-2.1242.9309-.4912,2.0444-.7359,3.3406-.7359,1.477,0,2.6597.2607,3.5498.782.8901.5195,1.571,1.3547,2.0427,2.5055l-3.9399,1.415c-.0851-.5674-.2695-.9646-.5532-1.188-.2855-.2252-.6401-.3369-1.0621-.3369-.461,0-.8334.1099-1.1171.328-.2855.2163-.4912.5461-.6171.9894-.1277.4415-.1915,1.0018-.1915,1.6792,0,.75.0816,1.3547.2447,1.8157.1631.4592.4114.789.7447.9894s.7536.2997,1.2625.2997c.2411,0,.4628-.0248.6632-.0727.1986-.0479.3741-.1241.5266-.227.1507-.1028.266-.2323.344-.3901s.1188-.3458.1188-.5639v-.0177h-2.0161v-2.5959h5.5553v6.7539h-2.7945l-.3458-3.2129.6543.7075c-.2075.86-.633,1.5214-1.2802,1.9877-.649.4663-1.5054.6986-2.5693.6986Z"/>
        <path class="cls-40" d="m717.4582,293.4175c-1.0302,0-1.9558-.227-2.7785-.6809s-1.4699-1.1366-1.9434-2.0515c-.4717-.9132-.7075-2.048-.7075-3.4044,0-1.3068.2447-2.4239.7359-3.3495.4894-.9256,1.2004-1.6348,2.1331-2.1242.9309-.4912,2.0444-.7359,3.3406-.7359,1.477,0,2.6597.2607,3.5498.782.8901.5195,1.571,1.3547,2.0427,2.5055l-3.9399,1.415c-.0851-.5674-.2695-.9646-.5532-1.188-.2855-.2252-.6401-.3369-1.0621-.3369-.461,0-.8334.1099-1.1171.328-.2855.2163-.4912.5461-.6171.9894-.1277.4415-.1915,1.0018-.1915,1.6792,0,.75.0816,1.3547.2447,1.8157.1631.4592.4114.789.7447.9894s.7536.2997,1.2625.2997c.2411,0,.4628-.0248.6632-.0727.1986-.0479.3741-.1241.5266-.227.1507-.1028.266-.2323.344-.3901s.1188-.3458.1188-.5639v-.0177h-2.0161v-2.5959h5.5553v6.7539h-2.7945l-.3458-3.2129.6543.7075c-.2075.86-.633,1.5214-1.2802,1.9877-.649.4663-1.5054.6986-2.5693.6986Z"/>
        <path class="cls-40" d="m732.2002,281.2537c1.5621,0,2.759.3475,3.5942,1.0426.8352.6968,1.2536,1.6207,1.2536,2.7697,0,1.3192-.4078,2.3122-1.2252,2.9771-.8174.6667-2.0072,1.0001-3.5676,1.0001l-.4185.2163h-1.9966v3.9772h-4.1403v-11.9829h6.5004Zm-.727,5.229c.4486,0,.7837-.0816,1.0089-.2465.2234-.1631.3351-.4504.3351-.8617,0-.399-.1117-.6844-.3351-.8529-.2252-.1702-.5603-.2553-1.0089-.2553h-1.6331v2.2164h1.6331Zm2.5055.8883l3.7413,5.8656h-4.5942l-2.7963-5.2467,3.6491-.6188Z"/>
        <path class="cls-40" d="m744.2753,281.0711c1.2696,0,2.3601.2429,3.2679.727.9079.4841,1.6029,1.1862,2.087,2.1065.4841.9203.727,2.0338.727,3.3406s-.2429,2.4203-.727,3.3406c-.4841.9203-1.1791,1.6224-2.087,2.1065-.9079.4841-1.9983.7252-3.2679.7252-1.2589,0-2.3459-.2411-3.259-.7252-.9149-.4841-1.6171-1.1862-2.1065-2.1065-.4912-.9203-.7359-2.0338-.7359-3.3406s.2447-2.4203.7359-3.3406c.4894-.9203,1.1916-1.6224,2.1065-2.1065.9132-.4841,2.0001-.727,3.259-.727Zm0,3.1775c-.4131,0-.7483.1064-1.0089.3174-.2607.2128-.4539.5355-.5798.9717-.1277.4362-.1915,1.0054-.1915,1.7075,0,.6898.0638,1.2554.1915,1.6969.1259.4433.3192.7695.5798.9805.2607.2128.5958.3174,1.0089.3174.4114,0,.7465-.1046,1.0071-.3174.2607-.211.4504-.5373.571-.9805.1223-.4415.1826-1.0071.1826-1.6969,0-.7022-.0603-1.2713-.1826-1.7075-.1206-.4362-.3103-.7589-.571-.9717-.2607-.211-.5958-.3174-1.0071-.3174Z"/>
        <path class="cls-40" d="m763.3206,281.2537v6.8266c0,1.7909-.4805,3.1296-1.4433,4.0126-.9628.883-2.4115,1.3245-4.3495,1.3245-1.9363,0-3.3849-.4415-4.3478-1.3245s-1.4433-2.2218-1.4433-4.0126v-6.8266h4.2485v7.1529c0,.6064.133,1.0621.399,1.3706s.6472.4628,1.1437.4628c.5089,0,.8972-.1543,1.1632-.4628s.399-.7642.399-1.3706v-7.1529h4.2307Z"/>
        <path class="cls-40" d="m771.4381,281.2537c1.0781,0,1.9912.1631,2.7413.4894s1.3192.805,1.7075,1.4345c.3865.6295.5798,1.399.5798,2.3069s-.1933,1.6756-.5798,2.3051c-.3883.6295-.9575,1.1082-1.7075,1.4345-.75.3263-1.6632.4894-2.7413.4894h-2.1242v3.5232h-4.2307v-11.9829h6.355Zm-.6898,5.4648c.4592,0,.8227-.0993,1.0887-.2997s.4007-.5107.4007-.9344-.1348-.7359-.4007-.9362c-.266-.1986-.6295-.2997-1.0887-.2997h-1.4345v2.47h1.4345Z"/>
      </g>
    </g>
    <g>
      <rect class="cls-38" x="11.0676" y="174.7398" width="256.5333" height="142.0624"/>
      <g>
        <g>
          <polygon class="cls-40" points="146.0678 224.7663 146.0678 218.1837 129.8423 208.5741 113.8757 217.9435 113.8757 225.4775 121.2751 225.4775 121.2751 222.6997 129.8423 217.6552 138.188 222.412 138.188 224.7788 146.0678 224.7663"/>
          <polygon class="cls-40" points="158.1099 242.7867 158.1099 231.4802 141.8844 221.8706 125.9178 231.24 125.9178 240.0538 133.3172 240.0538 133.3172 235.9962 141.8844 230.9517 150.23 235.7084 150.23 242.7992 158.1099 242.7867"/>
          <polygon class="cls-40" points="182.7794 242.7743 182.7794 231.2389 166.5539 221.6293 150.5873 230.9987 150.5873 242.7867 157.9867 242.7867 157.9867 235.7549 166.5539 230.7104 174.8996 235.4671 174.8996 242.7867 182.7794 242.7743"/>
          <polygon class="cls-40" points="133.3567 242.7805 133.3567 232.3164 117.1312 222.7069 101.1646 232.0762 101.1646 243.6455 108.564 243.6455 108.564 236.8324 117.1312 231.7879 125.4769 236.5447 125.4769 242.793 133.3567 242.7805"/>
          <polygon class="cls-40" points="170.7123 224.0781 170.7123 217.4955 154.4868 207.8859 138.5202 217.2552 138.5202 224.7893 145.9196 224.7893 145.9196 222.0115 154.4868 216.967 162.8325 221.7237 162.8325 224.0905 170.7123 224.0781"/>
        </g>
        <polygon class="cls-4" points="99.1239 204.609 102.2927 201.7283 184.7365 201.7283 184.7365 238.7802 181.4831 241.7378 100.4789 241.7378 99.1239 240.0039 99.1239 204.609"/>
      </g>
      <g>
        <path class="cls-40" d="m114.677,254.5052v11.9829h-3.6864v-4.158l.055-4.0304h-.055l-2.3246,8.1884h-3.3778l-2.2874-8.1884h-.0727l.055,4.0304v4.158h-3.7041v-11.9829h5.9188l1.3795,5.3194.5266,2.2324h.0372l.5266-2.2324,1.3795-5.3194h5.6297Z"/>
        <path class="cls-40" d="m128.4578,266.4881h-4.3212l-.5461-2.2874h-3.2307l-.5639,2.2874h-4.2112l3.885-11.9829h5.0836l3.9045,11.9829Zm-7.4632-4.9205h1.9788l-.9805-4.158-.9983,4.158Z"/>
        <path class="cls-40" d="m135.866,254.5052c1.5621,0,2.759.3475,3.5942,1.0426.8352.6968,1.2536,1.6207,1.2536,2.7697,0,1.3192-.4078,2.3122-1.2252,2.9771-.8174.6667-2.0072,1.0001-3.5676,1.0001l-.4185.2163h-1.9966v3.9772h-4.1403v-11.9829h6.5004Zm-.727,5.229c.4486,0,.7837-.0816,1.0089-.2465.2234-.1631.3351-.4504.3351-.8617,0-.399-.1117-.6844-.3351-.8529-.2252-.1702-.5603-.2553-1.0089-.2553h-1.6331v2.2164h1.6331Zm2.5055.8883l3.7413,5.8656h-4.5942l-2.7963-5.2467,3.6491-.6188Z"/>
        <path class="cls-40" d="m153.4769,262.8213c-.2181.9309-.5905,1.6809-1.1171,2.2501s-1.165.9788-1.915,1.2252c-.7518.2482-1.587.3724-2.5055.3724-1.2589,0-2.3459-.2411-3.259-.7252-.9149-.4841-1.6171-1.1862-2.1065-2.1065-.4912-.9203-.7359-2.0338-.7359-3.3406s.2447-2.4203.7359-3.3406c.4894-.9203,1.1916-1.6224,2.1065-2.1065.9132-.4841,2.0001-.727,3.259-.727.883,0,1.7058.1241,2.4682.3724s1.4079.6383,1.9345,1.172c.5266.5319.8742,1.2288,1.0444,2.087l-3.6314,1.4167c-.0975-.7873-.2943-1.2944-.5905-1.5249-.2979-.2305-.6685-.3458-1.1171-.3458-.4114,0-.7589.1064-1.0444.3174-.2837.2128-.4965.539-.6348.9805-.1401.4433-.2092,1.0089-.2092,1.6987,0,.6773.0638,1.2412.1915,1.688.1259.4486.3351.7784.6259.9894.2908.2128.6773.3174,1.1614.3174.4362,0,.7926-.1294,1.071-.3901.2784-.2589.4539-.6738.5266-1.243l3.7413.9628Z"/>
        <path class="cls-40" d="m166.0414,254.5052v6.8266c0,1.7909-.4805,3.1296-1.4433,4.0126s-2.4115,1.3245-4.3495,1.3245c-1.9363,0-3.3849-.4415-4.3478-1.3245s-1.4433-2.2218-1.4433-4.0126v-6.8266h4.2485v7.1529c0,.6064.133,1.0621.399,1.3706s.6472.4628,1.1437.4628c.5089,0,.8972-.1543,1.1632-.4628s.399-.7642.399-1.3706v-7.1529h4.2307Z"/>
        <path class="cls-40" d="m173.0489,254.3226c1.1508,0,2.1827.1436,3.0959.4273.9149.2837,1.7217.711,2.4239,1.2802l-1.7058,2.7236c-.5692-.4007-1.165-.7199-1.7891-.9628-.6241-.2411-1.2979-.3635-2.0249-.3635-.3138,0-.5656.0248-.7536.0727-.188.0496-.3209.1153-.399.2004s-.117.1809-.117.2908c0,.1454.1117.2536.3351.3263s.5053.1507.844.2358l1.6526.3812c1.2217.2784,2.1455.6898,2.7697,1.2341.6224.5461.9344,1.3015.9344,2.2696,0,.9699-.2358,1.7661-.7075,2.3884-.4734.6241-1.1118,1.0869-1.9168,1.3884-.805.3032-1.7146.4539-2.7324.4539-.7625,0-1.5249-.0692-2.2874-.2075-.7625-.1401-1.4717-.3458-2.1242-.6188-.6543-.2713-1.2164-.6011-1.688-.9894l1.6703-2.7767c.3511.2784.7731.5284,1.2696.7536.4965.2234,1.0107.4025,1.5444.5355.5319.133,1.0284.1986,1.4877.1986.2908,0,.5213-.0231.6915-.0727.1684-.0479.2872-.1117.3529-.1897.0674-.078.1011-.172.1011-.2819,0-.1684-.0709-.2961-.2092-.3812-.1401-.0851-.3901-.1684-.7536-.2536l-1.8157-.4007c-.6419-.1436-1.2536-.3387-1.8334-.5798-.5816-.2429-1.0532-.5958-1.4167-1.0621s-.5444-1.0994-.5444-1.8973c0-.8227.2199-1.5444.6614-2.1615.4433-.6171,1.0834-1.0976,1.9256-1.4433.8405-.3458,1.8618-.5178,3.0587-.5178Z"/>
        <path class="cls-40" d="m99.279,281.0137v-11.9829h6.8638c1.5125.0106,2.6384.2802,3.3761.8068.7394.5266,1.1082,1.3228,1.1082,2.3884,0,.7146-.2181,1.3192-.6543,1.8157-.4344.4965-1.1189.8103-2.0515.9433v.0195c1.0408.1082,1.8033.4167,2.2874.9256s.727,1.149.727,1.9239c0,1.0532-.3546,1.8441-1.0621,2.3707s-1.7944.789-3.259.789h-7.3355Zm4.0499-7.3355h1.8866c.727,0,1.0905-.2908,1.0905-.8706,0-.5816-.3635-.8724-1.0905-.8724h-1.8866v1.743Zm0,4.5765h2.1597c.3759,0,.6561-.0762.844-.227.188-.1525.2819-.3724.2819-.6632,0-.2784-.094-.4912-.2819-.6366s-.4681-.2181-.844-.2181h-2.1597v1.7448Z"/>
        <path class="cls-40" d="m123.5906,269.0308v6.8266c0,1.7909-.4805,3.1296-1.4433,4.0126-.9628.883-2.4115,1.3245-4.3495,1.3245-1.9363,0-3.3849-.4415-4.3478-1.3245-.9628-.883-1.4433-2.2218-1.4433-4.0126v-6.8266h4.2485v7.1529c0,.6064.133,1.0621.399,1.3706s.6472.4628,1.1437.4628c.5089,0,.8972-.1543,1.1632-.4628s.399-.7642.399-1.3706v-7.1529h4.2307Z"/>
        <path class="cls-40" d="m129.5838,269.0308v11.9829h-4.2307v-11.9829h4.2307Z"/>
        <path class="cls-40" d="m135.8111,277.909h5.4294v3.1048h-9.6601v-11.9829h4.2307v8.8781Z"/>
        <path class="cls-40" d="m148.6309,269.0308c1.876,0,3.2927.5195,4.2485,1.5604.9557,1.0408,1.4345,2.5179,1.4345,4.4311,0,1.9008-.4787,3.3743-1.4345,4.4205-.9557,1.0479-2.3725,1.571-4.2485,1.571h-5.8833v-11.9829h5.8833Zm-.5993,8.9686c.7873,0,1.3104-.2394,1.571-.7164.2589-.4787.3901-1.2323.3901-2.2608s-.1312-1.782-.3901-2.2608c-.2607-.4787-.7837-.7181-1.571-.7181h-1.0532v5.956h1.0532Z"/>
        <path class="cls-40" d="m160.1599,269.0308v11.9829h-4.2307v-11.9829h4.2307Z"/>
        <path class="cls-40" d="m173.8858,269.0308v11.9829h-4.5747l-2.8689-5.4471-.6543-1.4699h-.0355l.0709,2.4682v4.4488h-3.6669v-11.9829h4.5747l2.8689,5.4648.6543,1.4522h.0372l-.0727-2.47v-4.447h3.6669Z"/>
        <path class="cls-40" d="m180.9323,281.1946c-1.0302,0-1.9558-.227-2.7785-.6809-.8227-.4539-1.4699-1.1366-1.9434-2.0515-.4717-.9132-.7075-2.048-.7075-3.4044,0-1.3068.2447-2.4239.7359-3.3495.4894-.9256,1.2004-1.6348,2.1331-2.1242.9309-.4912,2.0444-.7359,3.3406-.7359,1.477,0,2.6597.2607,3.5498.782.8901.5195,1.571,1.3547,2.0427,2.5055l-3.9399,1.415c-.0851-.5674-.2695-.9646-.5532-1.188-.2855-.2252-.6401-.3369-1.0621-.3369-.461,0-.8334.1099-1.1171.328-.2855.2163-.4912.5461-.6171.9894-.1277.4415-.1915,1.0018-.1915,1.6792,0,.75.0816,1.3547.2447,1.8157.1631.4592.4114.789.7447.9894s.7536.2997,1.2625.2997c.2411,0,.4628-.0248.6632-.0727.1986-.0479.3741-.1241.5266-.227.1507-.1028.266-.2323.344-.3901s.1188-.3458.1188-.5639v-.0177h-2.0161v-2.5959h5.5553v6.7539h-2.7945l-.3458-3.2129.6543.7075c-.2075.86-.633,1.5214-1.2802,1.9877-.649.4663-1.5054.6986-2.5693.6986Z"/>
        <path class="cls-40" d="m104.3271,295.7202c-1.0302,0-1.9558-.227-2.7785-.6809s-1.4699-1.1366-1.9434-2.0515c-.4717-.9132-.7075-2.048-.7075-3.4044,0-1.3068.2447-2.4239.7359-3.3495.4894-.9256,1.2004-1.6348,2.1331-2.1242.9309-.4912,2.0444-.7359,3.3406-.7359,1.477,0,2.6597.2607,3.5498.782.8901.5195,1.571,1.3547,2.0427,2.5055l-3.9399,1.415c-.0851-.5674-.2695-.9646-.5532-1.188-.2855-.2252-.6401-.3369-1.0621-.3369-.461,0-.8334.1099-1.1171.328-.2855.2163-.4912.5461-.6171.9894-.1277.4415-.1915,1.0018-.1915,1.6792,0,.75.0816,1.3547.2447,1.8157.1631.4592.4114.789.7447.9894s.7536.2997,1.2625.2997c.2411,0,.4628-.0248.6632-.0727.1986-.0479.3741-.1241.5266-.227.1507-.1028.266-.2323.344-.3901s.1188-.3458.1188-.5639v-.0177h-2.0161v-2.5959h5.5553v6.7539h-2.7945l-.3458-3.2129.6543.7075c-.2075.86-.633,1.5214-1.2802,1.9877-.649.4663-1.5054.6986-2.5693.6986Z"/>
        <path class="cls-40" d="m119.069,283.5564c1.5621,0,2.759.3475,3.5942,1.0426.8352.6968,1.2536,1.6207,1.2536,2.7697,0,1.3192-.4078,2.3122-1.2252,2.9771-.8174.6667-2.0072,1.0001-3.5676,1.0001l-.4185.2163h-1.9966v3.9772h-4.1403v-11.9829h6.5004Zm-.727,5.229c.4486,0,.7837-.0816,1.0089-.2465.2234-.1631.3351-.4504.3351-.8617,0-.399-.1117-.6844-.3351-.8529-.2252-.1702-.5603-.2553-1.0089-.2553h-1.6331v2.2164h1.6331Zm2.5055.8883l3.7413,5.8656h-4.5942l-2.7963-5.2467,3.6491-.6188Z"/>
        <path class="cls-40" d="m131.1442,283.3738c1.2696,0,2.3601.2429,3.2679.727.9079.4841,1.6029,1.1862,2.087,2.1065.4841.9203.727,2.0338.727,3.3406s-.2429,2.4203-.727,3.3406c-.4841.9203-1.1791,1.6224-2.087,2.1065-.9079.4841-1.9983.7252-3.2679.7252-1.2589,0-2.3459-.2411-3.259-.7252-.9149-.4841-1.6171-1.1862-2.1065-2.1065-.4912-.9203-.7359-2.0338-.7359-3.3406s.2447-2.4203.7359-3.3406c.4894-.9203,1.1916-1.6224,2.1065-2.1065.9132-.4841,2.0001-.727,3.259-.727Zm0,3.1775c-.4131,0-.7483.1064-1.0089.3174-.2607.2128-.4539.5355-.5798.9717-.1277.4362-.1915,1.0054-.1915,1.7075,0,.6898.0638,1.2554.1915,1.6969.1259.4433.3192.7695.5798.9805.2607.2128.5958.3174,1.0089.3174.4114,0,.7465-.1046,1.0071-.3174.2607-.211.4504-.5373.571-.9805.1223-.4415.1826-1.0071.1826-1.6969,0-.7022-.0603-1.2713-.1826-1.7075-.1206-.4362-.3103-.7589-.571-.9717-.2607-.211-.5958-.3174-1.0071-.3174Z"/>
        <path class="cls-40" d="m150.1895,283.5564v6.8266c0,1.7909-.4805,3.1296-1.4433,4.0126s-2.4115,1.3245-4.3495,1.3245c-1.9363,0-3.3849-.4415-4.3478-1.3245s-1.4433-2.2218-1.4433-4.0126v-6.8266h4.2485v7.1529c0,.6064.133,1.0621.399,1.3706s.6472.4628,1.1437.4628c.5089,0,.8972-.1543,1.1632-.4628s.399-.7642.399-1.3706v-7.1529h4.2307Z"/>
        <path class="cls-40" d="m158.307,283.5564c1.0781,0,1.9912.1631,2.7413.4894s1.3192.805,1.7075,1.4345c.3865.6295.5798,1.399.5798,2.3069s-.1933,1.6756-.5798,2.3051c-.3883.6295-.9575,1.1082-1.7075,1.4345-.75.3263-1.6632.4894-2.7413.4894h-2.1242v3.5232h-4.2307v-11.9829h6.355Zm-.6898,5.4648c.4592,0,.8227-.0993,1.0887-.2997s.4007-.5107.4007-.9344-.1348-.7359-.4007-.9362c-.266-.1986-.6295-.2997-1.0887-.2997h-1.4345v2.47h1.4345Z"/>
      </g>
    </g>
    <rect class="cls-41" x="306.3788" width="252" height="144"/>
    <g>
      <text class="cls-18" transform="translate(319.4955 54.1992)"><tspan class="cls-29" x="0" y="0">9</tspan><tspan class="cls-47" x="6.0903" y="0">7</tspan><tspan class="cls-9" x="12.3604" y="0">2</tspan><tspan class="cls-47" x="18.4302" y="0">-5</tspan><tspan class="cls-26" x="29.9204" y="0">6</tspan><tspan class="cls-47" x="36.0908" y="0">1-0</tspan><tspan class="cls-9" x="52.6904" y="0">9</tspan><tspan class="cls-47" x="58.9604" y="0">34</tspan></text>
      <text class="cls-17" transform="translate(318.9116 36.98)"><tspan x="0" y="0">P</tspan><tspan class="cls-22" x="5.3438" y="0">R</tspan><tspan x="10.7998" y="0">OJ</tspan><tspan class="cls-10" x="21.6396" y="0">E</tspan><tspan x="26.6396" y="0">C</tspan><tspan class="cls-12" x="32.0879" y="0">T</tspan><tspan x="37.1748" y="0" xml:space="preserve"> MAN</tspan><tspan class="cls-21" x="58.0869" y="0">A</tspan><tspan x="63.3115" y="0">GER</tspan></text>
      <text class="cls-19" transform="translate(317.787 22.9258)"><tspan x="0" y="0">JOHN CONSUEL0</tspan></text>
    </g>
    <g>
      <text class="cls-13" transform="translate(486.6055 132.289)"><tspan class="cls-46" x="0" y="0">ma</tspan><tspan class="cls-44" x="12.4639" y="0">r</tspan><tspan class="cls-46" x="16.0078" y="0">cus</tspan><tspan class="cls-1" x="30.2158" y="0">b</tspan><tspan class="cls-46" x="35.3276" y="0">g</tspan><tspan class="cls-25" x="39.9595" y="0">.</tspan><tspan class="cls-46" x="42.3037" y="0">com</tspan></text>
      <text class="cls-13" transform="translate(457.6556 115.5419)"><tspan class="cls-46" x="0" y="0">ma</tspan><tspan class="cls-44" x="12.4639" y="0">r</tspan><tspan class="cls-46" x="16.0078" y="0">cus</tspan><tspan class="cls-1" x="30.2153" y="0">b</tspan><tspan class="cls-46" x="35.3271" y="0">g@gmai</tspan><tspan class="cls-42" x="67.1353" y="0">l</tspan><tspan class="cls-32" x="70.0635" y="0">.</tspan><tspan class="cls-37" x="72.4072" y="0">com</tspan></text>
      <text class="cls-13" transform="translate(472.9504 90.2526)"><tspan x="0" y="0">330 Passaic St</tspan><tspan class="cls-10" x="57.8721" y="0">r</tspan><tspan x="61.2637" y="0">e</tspan><tspan class="cls-10" x="65.8955" y="0">e</tspan><tspan x="70.4795" y="0">t </tspan><tspan x="0" y="9.5996">Passaic, NJ </tspan><tspan class="cls-49" x="47.7676" y="9.5996">07</tspan><tspan class="cls-10" x="57.3682" y="9.5996">0</tspan><tspan x="62.4727" y="9.5996">55.</tspan></text>
      <g>
        <g>
          <polygon class="cls-39" points="526.0585 61.7097 526.0585 58.3809 517.8531 53.5212 509.7787 58.2594 509.7787 62.0694 513.5206 62.0694 513.5206 60.6647 517.8531 58.1136 522.0736 60.5191 522.0736 61.7161 526.0585 61.7097"/>
          <polygon class="cls-39" points="532.1483 70.8228 532.1483 65.105 523.9429 60.2454 515.8684 64.9835 515.8684 69.4408 519.6104 69.4408 519.6104 67.3888 523.9429 64.8377 528.1634 67.2433 528.1634 70.8292 532.1483 70.8228"/>
          <polygon class="cls-39" points="544.6239 70.8165 544.6239 64.983 536.4185 60.1233 528.344 64.8615 528.344 70.8228 532.086 70.8228 532.086 67.2668 536.4185 64.7157 540.639 67.1212 540.639 70.8228 544.6239 70.8165"/>
          <polygon class="cls-39" points="519.6304 70.8197 519.6304 65.5279 511.425 60.6683 503.3506 65.4064 503.3506 71.2571 507.0925 71.2571 507.0925 67.8117 511.425 65.2606 515.6455 67.6662 515.6455 70.826 519.6304 70.8197"/>
          <polygon class="cls-39" points="538.5215 61.3617 538.5215 58.0328 530.3161 53.1732 522.2416 57.9113 522.2416 61.7214 525.9836 61.7214 525.9836 60.3166 530.3161 57.7655 534.5365 60.1711 534.5365 61.368 538.5215 61.3617"/>
        </g>
        <polygon class="cls-3" points="502.8294 54.4707 504.4319 53.1732 546.1245 53.1732 546.1245 69.8626 544.4792 71.1948 503.5147 71.1948 502.8294 70.4138 502.8294 54.4707"/>
      </g>
    </g>
    <g>
      <rect class="cls-39" x="314.1583" y="174.7398" width="256.5333" height="142.0624"/>
      <g>
        <g>
          <polygon class="cls-40" points="449.1585 224.7663 449.1585 218.1837 432.933 208.5741 416.9664 217.9435 416.9664 225.4775 424.3658 225.4775 424.3658 222.6997 432.933 217.6552 441.2787 222.412 441.2787 224.7788 449.1585 224.7663"/>
          <polygon class="cls-40" points="461.2006 242.7867 461.2006 231.4802 444.9751 221.8706 429.0085 231.24 429.0085 240.0538 436.4079 240.0538 436.4079 235.9962 444.9751 230.9517 453.3207 235.7084 453.3207 242.7992 461.2006 242.7867"/>
          <polygon class="cls-40" points="485.8701 242.7743 485.8701 231.2389 469.6446 221.6293 453.678 230.9987 453.678 242.7867 461.0774 242.7867 461.0774 235.7549 469.6446 230.7104 477.9903 235.4671 477.9903 242.7867 485.8701 242.7743"/>
          <polygon class="cls-40" points="436.4474 242.7805 436.4474 232.3164 420.2219 222.7069 404.2553 232.0762 404.2553 243.6455 411.6547 243.6455 411.6547 236.8324 420.2219 231.7879 428.5676 236.5447 428.5676 242.793 436.4474 242.7805"/>
          <polygon class="cls-40" points="473.803 224.0781 473.803 217.4955 457.5775 207.8859 441.6109 217.2552 441.6109 224.7893 449.0103 224.7893 449.0103 222.0115 457.5775 216.967 465.9232 221.7237 465.9232 224.0905 473.803 224.0781"/>
        </g>
        <polygon class="cls-4" points="402.2146 204.609 405.3834 201.7283 487.8272 201.7283 487.8272 238.7802 484.5738 241.7378 403.5696 241.7378 402.2146 240.0039 402.2146 204.609"/>
      </g>
      <g>
        <path class="cls-40" d="m417.7677,254.5052v11.9829h-3.6864v-4.158l.055-4.0304h-.055l-2.3246,8.1884h-3.3778l-2.2874-8.1884h-.0727l.055,4.0304v4.158h-3.7041v-11.9829h5.9188l1.3795,5.3194.5266,2.2324h.0372l.5266-2.2324,1.3795-5.3194h5.6297Z"/>
        <path class="cls-40" d="m431.5485,266.4881h-4.3212l-.5461-2.2874h-3.2307l-.5639,2.2874h-4.2112l3.885-11.9829h5.0836l3.9045,11.9829Zm-7.4632-4.9205h1.9788l-.9805-4.158-.9983,4.158Z"/>
        <path class="cls-40" d="m438.9567,254.5052c1.5621,0,2.759.3475,3.5942,1.0426.8352.6968,1.2536,1.6207,1.2536,2.7697,0,1.3192-.4078,2.3122-1.2252,2.9771-.8174.6667-2.0072,1.0001-3.5676,1.0001l-.4185.2163h-1.9966v3.9772h-4.1403v-11.9829h6.5004Zm-.727,5.229c.4486,0,.7837-.0816,1.0089-.2465.2234-.1631.3351-.4504.3351-.8617,0-.399-.1117-.6844-.3351-.8529-.2252-.1702-.5603-.2553-1.0089-.2553h-1.6331v2.2164h1.6331Zm2.5055.8883l3.7413,5.8656h-4.5942l-2.7963-5.2467,3.6491-.6188Z"/>
        <path class="cls-40" d="m456.5676,262.8213c-.2181.9309-.5905,1.6809-1.1171,2.2501s-1.165.9788-1.915,1.2252c-.7518.2482-1.587.3724-2.5055.3724-1.2589,0-2.3459-.2411-3.259-.7252-.9149-.4841-1.6171-1.1862-2.1065-2.1065-.4912-.9203-.7359-2.0338-.7359-3.3406s.2447-2.4203.7359-3.3406c.4894-.9203,1.1916-1.6224,2.1065-2.1065.9132-.4841,2.0001-.727,3.259-.727.883,0,1.7058.1241,2.4682.3724s1.4079.6383,1.9345,1.172c.5266.5319.8742,1.2288,1.0444,2.087l-3.6314,1.4167c-.0975-.7873-.2943-1.2944-.5905-1.5249-.2979-.2305-.6685-.3458-1.1171-.3458-.4114,0-.7589.1064-1.0444.3174-.2837.2128-.4965.539-.6348.9805-.1401.4433-.2092,1.0089-.2092,1.6987,0,.6773.0638,1.2412.1915,1.688.1259.4486.3351.7784.6259.9894.2908.2128.6773.3174,1.1614.3174.4362,0,.7926-.1294,1.071-.3901.2784-.2589.4539-.6738.5266-1.243l3.7413.9628Z"/>
        <path class="cls-40" d="m469.1321,254.5052v6.8266c0,1.7909-.4805,3.1296-1.4433,4.0126-.9628.883-2.4115,1.3245-4.3495,1.3245-1.9363,0-3.3849-.4415-4.3478-1.3245-.9628-.883-1.4433-2.2218-1.4433-4.0126v-6.8266h4.2485v7.1529c0,.6064.133,1.0621.399,1.3706s.6472.4628,1.1437.4628c.5089,0,.8972-.1543,1.1632-.4628s.399-.7642.399-1.3706v-7.1529h4.2307Z"/>
        <path class="cls-40" d="m476.1396,254.3226c1.1508,0,2.1827.1436,3.0959.4273.9149.2837,1.7217.711,2.4239,1.2802l-1.7058,2.7236c-.5692-.4007-1.165-.7199-1.7891-.9628-.6241-.2411-1.2979-.3635-2.0249-.3635-.3138,0-.5656.0248-.7536.0727-.188.0496-.3209.1153-.399.2004s-.117.1809-.117.2908c0,.1454.1117.2536.3351.3263s.5053.1507.844.2358l1.6526.3812c1.2217.2784,2.1455.6898,2.7697,1.2341.6224.5461.9344,1.3015.9344,2.2696,0,.9699-.2358,1.7661-.7075,2.3884-.4734.6241-1.1118,1.0869-1.9168,1.3884-.805.3032-1.7146.4539-2.7324.4539-.7625,0-1.5249-.0692-2.2874-.2075-.7625-.1401-1.4717-.3458-2.1242-.6188-.6543-.2713-1.2164-.6011-1.688-.9894l1.6703-2.7767c.3511.2784.7731.5284,1.2696.7536.4965.2234,1.0107.4025,1.5444.5355.5319.133,1.0284.1986,1.4877.1986.2908,0,.5213-.0231.6915-.0727.1684-.0479.2872-.1117.3529-.1897.0674-.078.1011-.172.1011-.2819,0-.1684-.0709-.2961-.2092-.3812-.1401-.0851-.3901-.1684-.7536-.2536l-1.8157-.4007c-.6419-.1436-1.2536-.3387-1.8334-.5798-.5816-.2429-1.0532-.5958-1.4167-1.0621-.3635-.4663-.5444-1.0994-.5444-1.8973,0-.8227.2199-1.5444.6614-2.1615.4433-.6171,1.0834-1.0976,1.9256-1.4433.8405-.3458,1.8618-.5178,3.0587-.5178Z"/>
        <path class="cls-40" d="m402.3697,281.0137v-11.9829h6.8638c1.5125.0106,2.6384.2802,3.3761.8068.7394.5266,1.1082,1.3228,1.1082,2.3884,0,.7146-.2181,1.3192-.6543,1.8157-.4344.4965-1.1189.8103-2.0515.9433v.0195c1.0408.1082,1.8033.4167,2.2874.9256s.727,1.149.727,1.9239c0,1.0532-.3546,1.8441-1.0621,2.3707s-1.7944.789-3.259.789h-7.3355Zm4.0499-7.3355h1.8866c.727,0,1.0905-.2908,1.0905-.8706,0-.5816-.3635-.8724-1.0905-.8724h-1.8866v1.743Zm0,4.5765h2.1597c.3759,0,.6561-.0762.844-.227.188-.1525.2819-.3724.2819-.6632,0-.2784-.094-.4912-.2819-.6366s-.4681-.2181-.844-.2181h-2.1597v1.7448Z"/>
        <path class="cls-40" d="m426.6813,269.0308v6.8266c0,1.7909-.4805,3.1296-1.4433,4.0126s-2.4115,1.3245-4.3495,1.3245c-1.9363,0-3.3849-.4415-4.3478-1.3245-.9628-.883-1.4433-2.2218-1.4433-4.0126v-6.8266h4.2485v7.1529c0,.6064.133,1.0621.399,1.3706s.6472.4628,1.1437.4628c.5089,0,.8972-.1543,1.1632-.4628s.399-.7642.399-1.3706v-7.1529h4.2307Z"/>
        <path class="cls-40" d="m432.6745,269.0308v11.9829h-4.2307v-11.9829h4.2307Z"/>
        <path class="cls-40" d="m438.9018,277.909h5.4294v3.1048h-9.6601v-11.9829h4.2307v8.8781Z"/>
        <path class="cls-40" d="m451.7216,269.0308c1.876,0,3.2927.5195,4.2485,1.5604s1.4345,2.5179,1.4345,4.4311c0,1.9008-.4787,3.3743-1.4345,4.4205-.9557,1.0479-2.3725,1.571-4.2485,1.571h-5.8833v-11.9829h5.8833Zm-.5993,8.9686c.7873,0,1.3104-.2394,1.571-.7164.2589-.4787.3901-1.2323.3901-2.2608s-.1312-1.782-.3901-2.2608c-.2607-.4787-.7837-.7181-1.571-.7181h-1.0532v5.956h1.0532Z"/>
        <path class="cls-40" d="m463.2506,269.0308v11.9829h-4.2307v-11.9829h4.2307Z"/>
        <path class="cls-40" d="m476.9765,269.0308v11.9829h-4.5747l-2.8689-5.4471-.6543-1.4699h-.0355l.0709,2.4682v4.4488h-3.6669v-11.9829h4.5747l2.8689,5.4648.6543,1.4522h.0372l-.0727-2.47v-4.447h3.6669Z"/>
        <path class="cls-40" d="m484.023,281.1946c-1.0302,0-1.9558-.227-2.7785-.6809-.8227-.4539-1.4699-1.1366-1.9434-2.0515-.4717-.9132-.7075-2.048-.7075-3.4044,0-1.3068.2447-2.4239.7359-3.3495.4894-.9256,1.2004-1.6348,2.1331-2.1242.9309-.4912,2.0444-.7359,3.3406-.7359,1.477,0,2.6597.2607,3.5498.782.8901.5195,1.571,1.3547,2.0427,2.5055l-3.9399,1.415c-.0851-.5674-.2695-.9646-.5532-1.188-.2855-.2252-.6401-.3369-1.0621-.3369-.461,0-.8334.1099-1.1171.328-.2855.2163-.4912.5461-.6171.9894-.1277.4415-.1915,1.0018-.1915,1.6792,0,.75.0816,1.3547.2447,1.8157.1631.4592.4114.789.7447.9894s.7536.2997,1.2625.2997c.2411,0,.4628-.0248.6632-.0727.1986-.0479.3741-.1241.5266-.227.1507-.1028.266-.2323.344-.3901s.1188-.3458.1188-.5639v-.0177h-2.0161v-2.5959h5.5553v6.7539h-2.7945l-.3458-3.2129.6543.7075c-.2075.86-.633,1.5214-1.2802,1.9877-.649.4663-1.5054.6986-2.5693.6986Z"/>
        <path class="cls-40" d="m407.4178,295.7202c-1.0302,0-1.9558-.227-2.7785-.6809s-1.4699-1.1366-1.9434-2.0515c-.4717-.9132-.7075-2.048-.7075-3.4044,0-1.3068.2447-2.4239.7359-3.3495.4894-.9256,1.2004-1.6348,2.1331-2.1242.9309-.4912,2.0444-.7359,3.3406-.7359,1.477,0,2.6597.2607,3.5498.782.8901.5195,1.571,1.3547,2.0427,2.5055l-3.9399,1.415c-.0851-.5674-.2695-.9646-.5532-1.188-.2855-.2252-.6401-.3369-1.0621-.3369-.461,0-.8334.1099-1.1171.328-.2855.2163-.4912.5461-.6171.9894-.1277.4415-.1915,1.0018-.1915,1.6792,0,.75.0816,1.3547.2447,1.8157.1631.4592.4114.789.7447.9894s.7536.2997,1.2625.2997c.2411,0,.4628-.0248.6632-.0727.1986-.0479.3741-.1241.5266-.227.1507-.1028.266-.2323.344-.3901s.1188-.3458.1188-.5639v-.0177h-2.0161v-2.5959h5.5553v6.7539h-2.7945l-.3458-3.2129.6543.7075c-.2075.86-.633,1.5214-1.2802,1.9877-.649.4663-1.5054.6986-2.5693.6986Z"/>
        <path class="cls-40" d="m422.1597,283.5564c1.5621,0,2.759.3475,3.5942,1.0426.8352.6968,1.2536,1.6207,1.2536,2.7697,0,1.3192-.4078,2.3122-1.2252,2.9771-.8174.6667-2.0072,1.0001-3.5676,1.0001l-.4185.2163h-1.9966v3.9772h-4.1403v-11.9829h6.5004Zm-.727,5.229c.4486,0,.7837-.0816,1.0089-.2465.2234-.1631.3351-.4504.3351-.8617,0-.399-.1117-.6844-.3351-.8529-.2252-.1702-.5603-.2553-1.0089-.2553h-1.6331v2.2164h1.6331Zm2.5055.8883l3.7413,5.8656h-4.5942l-2.7963-5.2467,3.6491-.6188Z"/>
        <path class="cls-40" d="m434.2349,283.3738c1.2696,0,2.3601.2429,3.2679.727.9079.4841,1.6029,1.1862,2.087,2.1065.4841.9203.727,2.0338.727,3.3406s-.2429,2.4203-.727,3.3406c-.4841.9203-1.1791,1.6224-2.087,2.1065-.9079.4841-1.9983.7252-3.2679.7252-1.2589,0-2.3459-.2411-3.259-.7252-.9149-.4841-1.6171-1.1862-2.1065-2.1065-.4912-.9203-.7359-2.0338-.7359-3.3406s.2447-2.4203.7359-3.3406c.4894-.9203,1.1916-1.6224,2.1065-2.1065.9132-.4841,2.0001-.727,3.259-.727Zm0,3.1775c-.4131,0-.7483.1064-1.0089.3174-.2607.2128-.4539.5355-.5798.9717-.1277.4362-.1915,1.0054-.1915,1.7075,0,.6898.0638,1.2554.1915,1.6969.1259.4433.3192.7695.5798.9805.2607.2128.5958.3174,1.0089.3174.4114,0,.7465-.1046,1.0071-.3174.2607-.211.4504-.5373.571-.9805.1223-.4415.1826-1.0071.1826-1.6969,0-.7022-.0603-1.2713-.1826-1.7075-.1206-.4362-.3103-.7589-.571-.9717-.2607-.211-.5958-.3174-1.0071-.3174Z"/>
        <path class="cls-40" d="m453.2802,283.5564v6.8266c0,1.7909-.4805,3.1296-1.4433,4.0126s-2.4115,1.3245-4.3495,1.3245c-1.9363,0-3.3849-.4415-4.3478-1.3245s-1.4433-2.2218-1.4433-4.0126v-6.8266h4.2485v7.1529c0,.6064.133,1.0621.399,1.3706s.6472.4628,1.1437.4628c.5089,0,.8972-.1543,1.1632-.4628s.399-.7642.399-1.3706v-7.1529h4.2307Z"/>
        <path class="cls-40" d="m461.3977,283.5564c1.0781,0,1.9912.1631,2.7413.4894s1.3192.805,1.7075,1.4345c.3865.6295.5798,1.399.5798,2.3069s-.1933,1.6756-.5798,2.3051c-.3883.6295-.9575,1.1082-1.7075,1.4345s-1.6632.4894-2.7413.4894h-2.1242v3.5232h-4.2307v-11.9829h6.355Zm-.6898,5.4648c.4592,0,.8227-.0993,1.0887-.2997s.4007-.5107.4007-.9344-.1348-.7359-.4007-.9362c-.266-.1986-.6295-.2997-1.0887-.2997h-1.4345v2.47h1.4345Z"/>
      </g>
    </g>
    <g>
      <text class="cls-20" transform="translate(649.7086 55.2919)"><tspan class="cls-45" x="0" y="0">86</tspan><tspan class="cls-8" x="14.0908" y="0">2</tspan><tspan class="cls-31" x="20.7681" y="0">-</tspan><tspan class="cls-45" x="26.4551" y="0">368</tspan><tspan class="cls-6" x="47.2778" y="0">-</tspan><tspan class="cls-27" x="52.1729" y="0">7</tspan><tspan class="cls-45" x="58.8501" y="0">863</tspan></text>
      <text class="cls-15" transform="translate(648.8327 22.5468)"><tspan class="cls-48" x="0" y="0">RUBEN SI</tspan><tspan class="cls-24" x="58.272" y="0">L</tspan><tspan class="cls-50" x="64.4873" y="0">V</tspan><tspan class="cls-7" x="72.0469" y="0">A</tspan></text>
      <text class="cls-17" transform="translate(648.8328 35.7246)"><tspan class="cls-36" x="0" y="0">O</tspan><tspan x="5.7754" y="0">WNER | CONTR</tspan><tspan class="cls-21" x="65.3818" y="0">A</tspan><tspan x="70.6064" y="0">C</tspan><tspan class="cls-51" x="76.0547" y="0">T</tspan><tspan class="cls-35" x="81.0615" y="0">OR</tspan></text>
    </g>
  </g>
</svg>